M48
; DRILL file {KiCad (6.0.1-0)} date 2022 February 13, Sunday 16:40:04
; FORMAT={-:-/ absolute / metric / decimal}
; #@! TF.CreationDate,2022-02-13T16:40:04+01:00
; #@! TF.GenerationSoftware,Kicad,Pcbnew,(6.0.1-0)
; #@! TF.FileFunction,Plated,1,2,PTH
FMAT,2
METRIC
; #@! TA.AperFunction,Plated,PTH,ViaDrill
T1C0.300
; #@! TA.AperFunction,Plated,PTH,ViaDrill
T2C0.400
; #@! TA.AperFunction,Plated,PTH,ComponentDrill
T3C0.700
; #@! TA.AperFunction,Plated,PTH,ComponentDrill
T4C0.750
%
G90
G05
T1
X148.2Y-106.6
X148.2Y-108.0
X148.2Y-109.4
X148.2Y-110.8
X148.2Y-112.2
X150.0Y-107.2
X150.0Y-108.6
X150.0Y-110.0
X150.0Y-111.4
X151.8Y-106.6
X151.8Y-108.0
X151.8Y-109.4
X151.8Y-110.8
X151.8Y-112.2
X153.8Y-107.2
X153.8Y-108.6
X153.8Y-110.0
X153.8Y-111.4
X155.4Y-106.6
X155.4Y-108.0
X155.4Y-109.4
X155.4Y-110.8
X155.4Y-112.2
T2
X122.4Y-96.4
X124.0Y-104.8
X124.2Y-90.0
X125.2Y-82.0
X129.2Y-106.6
X129.45Y-95.45
X130.1Y-85.95
X130.105Y-87.925
X130.13Y-83.975
X130.427Y-95.473
X130.534Y-103.2
X132.05Y-83.975
X132.1Y-85.948
X132.1Y-87.925
X133.346Y-100.2
X133.691Y-101.4
X134.055Y-83.975
X134.055Y-86.043
X134.055Y-87.898
X134.4Y-109.6
X136.4Y-109.6
X137.2Y-106.6
X139.409Y-93.009
X140.839Y-90.555
X142.181Y-89.213
X144.8Y-115.6
X145.071Y-93.6
X146.4Y-98.8
X148.4Y-96.8
X149.4Y-115.0
X150.6Y-99.4
X151.6Y-94.4
X151.6Y-96.8
X153.791Y-83.0
X154.686Y-98.806
X154.8Y-90.2
X158.2Y-109.2
X158.6Y-89.0
T3
X156.162Y-97.925
X156.162Y-102.075
T4
X130.604Y-113.15
X132.604Y-113.15
X134.604Y-113.15
X136.604Y-113.15
T0
M30
