%TF.GenerationSoftware,KiCad,Pcbnew,(6.0.1-0)*%
%TF.CreationDate,2022-02-13T16:39:06+01:00*%
%TF.ProjectId,NightLight,4e696768-744c-4696-9768-742e6b696361,rev?*%
%TF.SameCoordinates,Original*%
%TF.FileFunction,Legend,Top*%
%TF.FilePolarity,Positive*%
%FSLAX46Y46*%
G04 Gerber Fmt 4.6, Leading zero omitted, Abs format (unit mm)*
G04 Created by KiCad (PCBNEW (6.0.1-0)) date 2022-02-13 16:39:06*
%MOMM*%
%LPD*%
G01*
G04 APERTURE LIST*
G04 Aperture macros list*
%AMRoundRect*
0 Rectangle with rounded corners*
0 $1 Rounding radius*
0 $2 $3 $4 $5 $6 $7 $8 $9 X,Y pos of 4 corners*
0 Add a 4 corners polygon primitive as box body*
4,1,4,$2,$3,$4,$5,$6,$7,$8,$9,$2,$3,0*
0 Add four circle primitives for the rounded corners*
1,1,$1+$1,$2,$3*
1,1,$1+$1,$4,$5*
1,1,$1+$1,$6,$7*
1,1,$1+$1,$8,$9*
0 Add four rect primitives between the rounded corners*
20,1,$1+$1,$2,$3,$4,$5,0*
20,1,$1+$1,$4,$5,$6,$7,0*
20,1,$1+$1,$6,$7,$8,$9,0*
20,1,$1+$1,$8,$9,$2,$3,0*%
%AMOutline5P*
0 Free polygon, 5 corners , with rotation*
0 The origin of the aperture is its center*
0 number of corners: always 5*
0 $1 to $10 corner X, Y*
0 $11 Rotation angle, in degrees counterclockwise*
0 create outline with 5 corners*
4,1,5,$1,$2,$3,$4,$5,$6,$7,$8,$9,$10,$1,$2,$11*%
%AMOutline6P*
0 Free polygon, 6 corners , with rotation*
0 The origin of the aperture is its center*
0 number of corners: always 6*
0 $1 to $12 corner X, Y*
0 $13 Rotation angle, in degrees counterclockwise*
0 create outline with 6 corners*
4,1,6,$1,$2,$3,$4,$5,$6,$7,$8,$9,$10,$11,$12,$1,$2,$13*%
%AMOutline7P*
0 Free polygon, 7 corners , with rotation*
0 The origin of the aperture is its center*
0 number of corners: always 7*
0 $1 to $14 corner X, Y*
0 $15 Rotation angle, in degrees counterclockwise*
0 create outline with 7 corners*
4,1,7,$1,$2,$3,$4,$5,$6,$7,$8,$9,$10,$11,$12,$13,$14,$1,$2,$15*%
%AMOutline8P*
0 Free polygon, 8 corners , with rotation*
0 The origin of the aperture is its center*
0 number of corners: always 8*
0 $1 to $16 corner X, Y*
0 $17 Rotation angle, in degrees counterclockwise*
0 create outline with 8 corners*
4,1,8,$1,$2,$3,$4,$5,$6,$7,$8,$9,$10,$11,$12,$13,$14,$15,$16,$1,$2,$17*%
G04 Aperture macros list end*
%ADD10C,0.300000*%
%ADD11C,0.150000*%
%ADD12C,0.002540*%
%ADD13C,0.120000*%
%ADD14C,0.700000*%
%ADD15R,1.350000X0.400000*%
%ADD16R,1.900000X1.900000*%
%ADD17RoundRect,0.250000X-0.337500X-0.475000X0.337500X-0.475000X0.337500X0.475000X-0.337500X0.475000X0*%
%ADD18RoundRect,0.250000X-0.475000X0.337500X-0.475000X-0.337500X0.475000X-0.337500X0.475000X0.337500X0*%
%ADD19RoundRect,0.250000X0.350000X0.450000X-0.350000X0.450000X-0.350000X-0.450000X0.350000X-0.450000X0*%
%ADD20R,0.700000X0.700000*%
%ADD21R,1.450000X1.450000*%
%ADD22Outline5P,-0.725000X0.725000X0.725000X0.725000X0.725000X-0.217500X0.217500X-0.725000X-0.725000X-0.725000X180.000000*%
%ADD23R,0.400000X0.800000*%
%ADD24R,0.800000X0.400000*%
%ADD25RoundRect,0.150000X-0.150000X0.512500X-0.150000X-0.512500X0.150000X-0.512500X0.150000X0.512500X0*%
%ADD26R,3.350000X3.350000*%
%ADD27RoundRect,0.062500X0.337500X-0.062500X0.337500X0.062500X-0.337500X0.062500X-0.337500X-0.062500X0*%
%ADD28RoundRect,0.062500X0.062500X-0.337500X0.062500X0.337500X-0.062500X0.337500X-0.062500X-0.337500X0*%
%ADD29RoundRect,0.250000X0.475000X-0.337500X0.475000X0.337500X-0.475000X0.337500X-0.475000X-0.337500X0*%
%ADD30R,0.800000X1.900000*%
%ADD31RoundRect,0.250000X0.337500X0.475000X-0.337500X0.475000X-0.337500X-0.475000X0.337500X-0.475000X0*%
%ADD32RoundRect,0.250000X-0.450000X0.350000X-0.450000X-0.350000X0.450000X-0.350000X0.450000X0.350000X0*%
%ADD33RoundRect,0.250000X0.325000X0.450000X-0.325000X0.450000X-0.325000X-0.450000X0.325000X-0.450000X0*%
%ADD34R,1.400000X1.000000*%
%ADD35RoundRect,0.250000X-0.350000X-0.450000X0.350000X-0.450000X0.350000X0.450000X-0.350000X0.450000X0*%
%ADD36RoundRect,0.250000X-0.350000X-0.625000X0.350000X-0.625000X0.350000X0.625000X-0.350000X0.625000X0*%
%ADD37O,1.200000X1.750000*%
%ADD38RoundRect,0.250000X0.450000X-0.350000X0.450000X0.350000X-0.450000X0.350000X-0.450000X-0.350000X0*%
%ADD39R,1.500000X2.000000*%
%ADD40R,3.800000X2.000000*%
%ADD41R,0.350000X0.375000*%
%ADD42R,0.375000X0.350000*%
%ADD43RoundRect,0.250000X-0.550000X1.050000X-0.550000X-1.050000X0.550000X-1.050000X0.550000X1.050000X0*%
G04 APERTURE END LIST*
D10*
X140552142Y-118678571D02*
X140552142Y-117178571D01*
X141409285Y-118678571D01*
X141409285Y-117178571D01*
X142123571Y-118678571D02*
X142123571Y-117678571D01*
X142123571Y-117178571D02*
X142052142Y-117250000D01*
X142123571Y-117321428D01*
X142195000Y-117250000D01*
X142123571Y-117178571D01*
X142123571Y-117321428D01*
X143480714Y-117678571D02*
X143480714Y-118892857D01*
X143409285Y-119035714D01*
X143337857Y-119107142D01*
X143195000Y-119178571D01*
X142980714Y-119178571D01*
X142837857Y-119107142D01*
X143480714Y-118607142D02*
X143337857Y-118678571D01*
X143052142Y-118678571D01*
X142909285Y-118607142D01*
X142837857Y-118535714D01*
X142766428Y-118392857D01*
X142766428Y-117964285D01*
X142837857Y-117821428D01*
X142909285Y-117750000D01*
X143052142Y-117678571D01*
X143337857Y-117678571D01*
X143480714Y-117750000D01*
X144195000Y-118678571D02*
X144195000Y-117178571D01*
X144837857Y-118678571D02*
X144837857Y-117892857D01*
X144766428Y-117750000D01*
X144623571Y-117678571D01*
X144409285Y-117678571D01*
X144266428Y-117750000D01*
X144195000Y-117821428D01*
X145337857Y-117678571D02*
X145909285Y-117678571D01*
X145552142Y-117178571D02*
X145552142Y-118464285D01*
X145623571Y-118607142D01*
X145766428Y-118678571D01*
X145909285Y-118678571D01*
X147123571Y-118678571D02*
X146409285Y-118678571D01*
X146409285Y-117178571D01*
X147623571Y-118678571D02*
X147623571Y-117678571D01*
X147623571Y-117178571D02*
X147552142Y-117250000D01*
X147623571Y-117321428D01*
X147695000Y-117250000D01*
X147623571Y-117178571D01*
X147623571Y-117321428D01*
X148980714Y-117678571D02*
X148980714Y-118892857D01*
X148909285Y-119035714D01*
X148837857Y-119107142D01*
X148695000Y-119178571D01*
X148480714Y-119178571D01*
X148337857Y-119107142D01*
X148980714Y-118607142D02*
X148837857Y-118678571D01*
X148552142Y-118678571D01*
X148409285Y-118607142D01*
X148337857Y-118535714D01*
X148266428Y-118392857D01*
X148266428Y-117964285D01*
X148337857Y-117821428D01*
X148409285Y-117750000D01*
X148552142Y-117678571D01*
X148837857Y-117678571D01*
X148980714Y-117750000D01*
X149695000Y-118678571D02*
X149695000Y-117178571D01*
X150337857Y-118678571D02*
X150337857Y-117892857D01*
X150266428Y-117750000D01*
X150123571Y-117678571D01*
X149909285Y-117678571D01*
X149766428Y-117750000D01*
X149695000Y-117821428D01*
X150837857Y-117678571D02*
X151409285Y-117678571D01*
X151052142Y-117178571D02*
X151052142Y-118464285D01*
X151123571Y-118607142D01*
X151266428Y-118678571D01*
X151409285Y-118678571D01*
X152909285Y-117678571D02*
X153266428Y-118678571D01*
X153623571Y-117678571D01*
X154980714Y-118678571D02*
X154123571Y-118678571D01*
X154552142Y-118678571D02*
X154552142Y-117178571D01*
X154409285Y-117392857D01*
X154266428Y-117535714D01*
X154123571Y-117607142D01*
X120976428Y-115485357D02*
X121476428Y-115485357D01*
X121690714Y-116271071D02*
X120976428Y-116271071D01*
X120976428Y-114771071D01*
X121690714Y-114771071D01*
X122119285Y-115271071D02*
X122690714Y-115271071D01*
X122333571Y-114771071D02*
X122333571Y-116056785D01*
X122405000Y-116199642D01*
X122547857Y-116271071D01*
X122690714Y-116271071D01*
X123190714Y-115271071D02*
X123190714Y-116271071D01*
X123190714Y-115413928D02*
X123262142Y-115342500D01*
X123405000Y-115271071D01*
X123619285Y-115271071D01*
X123762142Y-115342500D01*
X123833571Y-115485357D01*
X123833571Y-116271071D01*
X124762142Y-116271071D02*
X124619285Y-116199642D01*
X124547857Y-116128214D01*
X124476428Y-115985357D01*
X124476428Y-115556785D01*
X124547857Y-115413928D01*
X124619285Y-115342500D01*
X124762142Y-115271071D01*
X124976428Y-115271071D01*
X125119285Y-115342500D01*
X125190714Y-115413928D01*
X125262142Y-115556785D01*
X125262142Y-115985357D01*
X125190714Y-116128214D01*
X125119285Y-116199642D01*
X124976428Y-116271071D01*
X124762142Y-116271071D01*
X126119285Y-116271071D02*
X125976428Y-116199642D01*
X125905000Y-116056785D01*
X125905000Y-114771071D01*
X126690714Y-116271071D02*
X126690714Y-115271071D01*
X126690714Y-114771071D02*
X126619285Y-114842500D01*
X126690714Y-114913928D01*
X126762142Y-114842500D01*
X126690714Y-114771071D01*
X126690714Y-114913928D01*
X127190714Y-115271071D02*
X127762142Y-115271071D01*
X127405000Y-114771071D02*
X127405000Y-116056785D01*
X127476428Y-116199642D01*
X127619285Y-116271071D01*
X127762142Y-116271071D01*
X122476428Y-117328928D02*
X122547857Y-117257500D01*
X122690714Y-117186071D01*
X123047857Y-117186071D01*
X123190714Y-117257500D01*
X123262142Y-117328928D01*
X123333571Y-117471785D01*
X123333571Y-117614642D01*
X123262142Y-117828928D01*
X122405000Y-118686071D01*
X123333571Y-118686071D01*
X124262142Y-117186071D02*
X124405000Y-117186071D01*
X124547857Y-117257500D01*
X124619285Y-117328928D01*
X124690714Y-117471785D01*
X124762142Y-117757500D01*
X124762142Y-118114642D01*
X124690714Y-118400357D01*
X124619285Y-118543214D01*
X124547857Y-118614642D01*
X124405000Y-118686071D01*
X124262142Y-118686071D01*
X124119285Y-118614642D01*
X124047857Y-118543214D01*
X123976428Y-118400357D01*
X123905000Y-118114642D01*
X123905000Y-117757500D01*
X123976428Y-117471785D01*
X124047857Y-117328928D01*
X124119285Y-117257500D01*
X124262142Y-117186071D01*
X125333571Y-117328928D02*
X125405000Y-117257500D01*
X125547857Y-117186071D01*
X125905000Y-117186071D01*
X126047857Y-117257500D01*
X126119285Y-117328928D01*
X126190714Y-117471785D01*
X126190714Y-117614642D01*
X126119285Y-117828928D01*
X125262142Y-118686071D01*
X126190714Y-118686071D01*
X126762142Y-117328928D02*
X126833571Y-117257500D01*
X126976428Y-117186071D01*
X127333571Y-117186071D01*
X127476428Y-117257500D01*
X127547857Y-117328928D01*
X127619285Y-117471785D01*
X127619285Y-117614642D01*
X127547857Y-117828928D01*
X126690714Y-118686071D01*
X127619285Y-118686071D01*
D11*
%TO.C,X1*%
X153814880Y-103759642D02*
X154814880Y-103092976D01*
X153814880Y-103092976D02*
X154814880Y-103759642D01*
X154814880Y-102188214D02*
X154814880Y-102759642D01*
X154814880Y-102473928D02*
X153814880Y-102473928D01*
X153957738Y-102569166D01*
X154052976Y-102664404D01*
X154100595Y-102759642D01*
%TO.C,C9*%
X146359642Y-97157142D02*
X146312023Y-97204761D01*
X146169166Y-97252380D01*
X146073928Y-97252380D01*
X145931071Y-97204761D01*
X145835833Y-97109523D01*
X145788214Y-97014285D01*
X145740595Y-96823809D01*
X145740595Y-96680952D01*
X145788214Y-96490476D01*
X145835833Y-96395238D01*
X145931071Y-96300000D01*
X146073928Y-96252380D01*
X146169166Y-96252380D01*
X146312023Y-96300000D01*
X146359642Y-96347619D01*
X146835833Y-97252380D02*
X147026309Y-97252380D01*
X147121547Y-97204761D01*
X147169166Y-97157142D01*
X147264404Y-97014285D01*
X147312023Y-96823809D01*
X147312023Y-96442857D01*
X147264404Y-96347619D01*
X147216785Y-96300000D01*
X147121547Y-96252380D01*
X146931071Y-96252380D01*
X146835833Y-96300000D01*
X146788214Y-96347619D01*
X146740595Y-96442857D01*
X146740595Y-96680952D01*
X146788214Y-96776190D01*
X146835833Y-96823809D01*
X146931071Y-96871428D01*
X147121547Y-96871428D01*
X147216785Y-96823809D01*
X147264404Y-96776190D01*
X147312023Y-96680952D01*
%TO.C,C6*%
X122233333Y-97157142D02*
X122185714Y-97204761D01*
X122042857Y-97252380D01*
X121947619Y-97252380D01*
X121804761Y-97204761D01*
X121709523Y-97109523D01*
X121661904Y-97014285D01*
X121614285Y-96823809D01*
X121614285Y-96680952D01*
X121661904Y-96490476D01*
X121709523Y-96395238D01*
X121804761Y-96300000D01*
X121947619Y-96252380D01*
X122042857Y-96252380D01*
X122185714Y-96300000D01*
X122233333Y-96347619D01*
X123090476Y-96252380D02*
X122900000Y-96252380D01*
X122804761Y-96300000D01*
X122757142Y-96347619D01*
X122661904Y-96490476D01*
X122614285Y-96680952D01*
X122614285Y-97061904D01*
X122661904Y-97157142D01*
X122709523Y-97204761D01*
X122804761Y-97252380D01*
X122995238Y-97252380D01*
X123090476Y-97204761D01*
X123138095Y-97157142D01*
X123185714Y-97061904D01*
X123185714Y-96823809D01*
X123138095Y-96728571D01*
X123090476Y-96680952D01*
X122995238Y-96633333D01*
X122804761Y-96633333D01*
X122709523Y-96680952D01*
X122661904Y-96728571D01*
X122614285Y-96823809D01*
%TO.C,R10*%
X155407023Y-87252380D02*
X155073690Y-86776190D01*
X154835595Y-87252380D02*
X154835595Y-86252380D01*
X155216547Y-86252380D01*
X155311785Y-86300000D01*
X155359404Y-86347619D01*
X155407023Y-86442857D01*
X155407023Y-86585714D01*
X155359404Y-86680952D01*
X155311785Y-86728571D01*
X155216547Y-86776190D01*
X154835595Y-86776190D01*
X156359404Y-87252380D02*
X155787976Y-87252380D01*
X156073690Y-87252380D02*
X156073690Y-86252380D01*
X155978452Y-86395238D01*
X155883214Y-86490476D01*
X155787976Y-86538095D01*
X156978452Y-86252380D02*
X157073690Y-86252380D01*
X157168928Y-86300000D01*
X157216547Y-86347619D01*
X157264166Y-86442857D01*
X157311785Y-86633333D01*
X157311785Y-86871428D01*
X157264166Y-87061904D01*
X157216547Y-87157142D01*
X157168928Y-87204761D01*
X157073690Y-87252380D01*
X156978452Y-87252380D01*
X156883214Y-87204761D01*
X156835595Y-87157142D01*
X156787976Y-87061904D01*
X156740357Y-86871428D01*
X156740357Y-86633333D01*
X156787976Y-86442857D01*
X156835595Y-86347619D01*
X156883214Y-86300000D01*
X156978452Y-86252380D01*
%TO.C,U1*%
X136906095Y-92006380D02*
X136906095Y-92815904D01*
X136953714Y-92911142D01*
X137001333Y-92958761D01*
X137096571Y-93006380D01*
X137287047Y-93006380D01*
X137382285Y-92958761D01*
X137429904Y-92911142D01*
X137477523Y-92815904D01*
X137477523Y-92006380D01*
X138477523Y-93006380D02*
X137906095Y-93006380D01*
X138191809Y-93006380D02*
X138191809Y-92006380D01*
X138096571Y-92149238D01*
X138001333Y-92244476D01*
X137906095Y-92292095D01*
%TO.C,D1*%
X148652380Y-101322095D02*
X147652380Y-101322095D01*
X147652380Y-101084000D01*
X147700000Y-100941142D01*
X147795238Y-100845904D01*
X147890476Y-100798285D01*
X148080952Y-100750666D01*
X148223809Y-100750666D01*
X148414285Y-100798285D01*
X148509523Y-100845904D01*
X148604761Y-100941142D01*
X148652380Y-101084000D01*
X148652380Y-101322095D01*
X148652380Y-99798285D02*
X148652380Y-100369714D01*
X148652380Y-100084000D02*
X147652380Y-100084000D01*
X147795238Y-100179238D01*
X147890476Y-100274476D01*
X147938095Y-100369714D01*
%TO.C,U3*%
X142786595Y-93452380D02*
X142786595Y-94261904D01*
X142834214Y-94357142D01*
X142881833Y-94404761D01*
X142977071Y-94452380D01*
X143167547Y-94452380D01*
X143262785Y-94404761D01*
X143310404Y-94357142D01*
X143358023Y-94261904D01*
X143358023Y-93452380D01*
X143738976Y-93452380D02*
X144358023Y-93452380D01*
X144024690Y-93833333D01*
X144167547Y-93833333D01*
X144262785Y-93880952D01*
X144310404Y-93928571D01*
X144358023Y-94023809D01*
X144358023Y-94261904D01*
X144310404Y-94357142D01*
X144262785Y-94404761D01*
X144167547Y-94452380D01*
X143881833Y-94452380D01*
X143786595Y-94404761D01*
X143738976Y-94357142D01*
%TO.C,R2*%
X130259642Y-94852380D02*
X129926309Y-94376190D01*
X129688214Y-94852380D02*
X129688214Y-93852380D01*
X130069166Y-93852380D01*
X130164404Y-93900000D01*
X130212023Y-93947619D01*
X130259642Y-94042857D01*
X130259642Y-94185714D01*
X130212023Y-94280952D01*
X130164404Y-94328571D01*
X130069166Y-94376190D01*
X129688214Y-94376190D01*
X130640595Y-93947619D02*
X130688214Y-93900000D01*
X130783452Y-93852380D01*
X131021547Y-93852380D01*
X131116785Y-93900000D01*
X131164404Y-93947619D01*
X131212023Y-94042857D01*
X131212023Y-94138095D01*
X131164404Y-94280952D01*
X130592976Y-94852380D01*
X131212023Y-94852380D01*
%TO.C,C4*%
X123781333Y-85757142D02*
X123733714Y-85804761D01*
X123590857Y-85852380D01*
X123495619Y-85852380D01*
X123352761Y-85804761D01*
X123257523Y-85709523D01*
X123209904Y-85614285D01*
X123162285Y-85423809D01*
X123162285Y-85280952D01*
X123209904Y-85090476D01*
X123257523Y-84995238D01*
X123352761Y-84900000D01*
X123495619Y-84852380D01*
X123590857Y-84852380D01*
X123733714Y-84900000D01*
X123781333Y-84947619D01*
X124638476Y-85185714D02*
X124638476Y-85852380D01*
X124400380Y-84804761D02*
X124162285Y-85519047D01*
X124781333Y-85519047D01*
%TO.C,C3*%
X121433333Y-85757142D02*
X121385714Y-85804761D01*
X121242857Y-85852380D01*
X121147619Y-85852380D01*
X121004761Y-85804761D01*
X120909523Y-85709523D01*
X120861904Y-85614285D01*
X120814285Y-85423809D01*
X120814285Y-85280952D01*
X120861904Y-85090476D01*
X120909523Y-84995238D01*
X121004761Y-84900000D01*
X121147619Y-84852380D01*
X121242857Y-84852380D01*
X121385714Y-84900000D01*
X121433333Y-84947619D01*
X121766666Y-84852380D02*
X122385714Y-84852380D01*
X122052380Y-85233333D01*
X122195238Y-85233333D01*
X122290476Y-85280952D01*
X122338095Y-85328571D01*
X122385714Y-85423809D01*
X122385714Y-85661904D01*
X122338095Y-85757142D01*
X122290476Y-85804761D01*
X122195238Y-85852380D01*
X121909523Y-85852380D01*
X121814285Y-85804761D01*
X121766666Y-85757142D01*
%TO.C,Q2*%
X136827261Y-105577619D02*
X136732023Y-105530000D01*
X136636785Y-105434761D01*
X136493928Y-105291904D01*
X136398690Y-105244285D01*
X136303452Y-105244285D01*
X136351071Y-105482380D02*
X136255833Y-105434761D01*
X136160595Y-105339523D01*
X136112976Y-105149047D01*
X136112976Y-104815714D01*
X136160595Y-104625238D01*
X136255833Y-104530000D01*
X136351071Y-104482380D01*
X136541547Y-104482380D01*
X136636785Y-104530000D01*
X136732023Y-104625238D01*
X136779642Y-104815714D01*
X136779642Y-105149047D01*
X136732023Y-105339523D01*
X136636785Y-105434761D01*
X136541547Y-105482380D01*
X136351071Y-105482380D01*
X137160595Y-104577619D02*
X137208214Y-104530000D01*
X137303452Y-104482380D01*
X137541547Y-104482380D01*
X137636785Y-104530000D01*
X137684404Y-104577619D01*
X137732023Y-104672857D01*
X137732023Y-104768095D01*
X137684404Y-104910952D01*
X137112976Y-105482380D01*
X137732023Y-105482380D01*
%TO.C,C5*%
X134307023Y-107290642D02*
X134259404Y-107338261D01*
X134116547Y-107385880D01*
X134021309Y-107385880D01*
X133878452Y-107338261D01*
X133783214Y-107243023D01*
X133735595Y-107147785D01*
X133687976Y-106957309D01*
X133687976Y-106814452D01*
X133735595Y-106623976D01*
X133783214Y-106528738D01*
X133878452Y-106433500D01*
X134021309Y-106385880D01*
X134116547Y-106385880D01*
X134259404Y-106433500D01*
X134307023Y-106481119D01*
X135211785Y-106385880D02*
X134735595Y-106385880D01*
X134687976Y-106862071D01*
X134735595Y-106814452D01*
X134830833Y-106766833D01*
X135068928Y-106766833D01*
X135164166Y-106814452D01*
X135211785Y-106862071D01*
X135259404Y-106957309D01*
X135259404Y-107195404D01*
X135211785Y-107290642D01*
X135164166Y-107338261D01*
X135068928Y-107385880D01*
X134830833Y-107385880D01*
X134735595Y-107338261D01*
X134687976Y-107290642D01*
%TO.C,R5*%
X138833333Y-96852380D02*
X138500000Y-96376190D01*
X138261904Y-96852380D02*
X138261904Y-95852380D01*
X138642857Y-95852380D01*
X138738095Y-95900000D01*
X138785714Y-95947619D01*
X138833333Y-96042857D01*
X138833333Y-96185714D01*
X138785714Y-96280952D01*
X138738095Y-96328571D01*
X138642857Y-96376190D01*
X138261904Y-96376190D01*
X139738095Y-95852380D02*
X139261904Y-95852380D01*
X139214285Y-96328571D01*
X139261904Y-96280952D01*
X139357142Y-96233333D01*
X139595238Y-96233333D01*
X139690476Y-96280952D01*
X139738095Y-96328571D01*
X139785714Y-96423809D01*
X139785714Y-96661904D01*
X139738095Y-96757142D01*
X139690476Y-96804761D01*
X139595238Y-96852380D01*
X139357142Y-96852380D01*
X139261904Y-96804761D01*
X139214285Y-96757142D01*
%TO.C,D3*%
X149188214Y-84780380D02*
X149188214Y-83780380D01*
X149426309Y-83780380D01*
X149569166Y-83828000D01*
X149664404Y-83923238D01*
X149712023Y-84018476D01*
X149759642Y-84208952D01*
X149759642Y-84351809D01*
X149712023Y-84542285D01*
X149664404Y-84637523D01*
X149569166Y-84732761D01*
X149426309Y-84780380D01*
X149188214Y-84780380D01*
X150092976Y-83780380D02*
X150712023Y-83780380D01*
X150378690Y-84161333D01*
X150521547Y-84161333D01*
X150616785Y-84208952D01*
X150664404Y-84256571D01*
X150712023Y-84351809D01*
X150712023Y-84589904D01*
X150664404Y-84685142D01*
X150616785Y-84732761D01*
X150521547Y-84780380D01*
X150235833Y-84780380D01*
X150140595Y-84732761D01*
X150092976Y-84685142D01*
X154835595Y-83780380D02*
X154835595Y-84589904D01*
X154883214Y-84685142D01*
X154930833Y-84732761D01*
X155026071Y-84780380D01*
X155216547Y-84780380D01*
X155311785Y-84732761D01*
X155359404Y-84685142D01*
X155407023Y-84589904D01*
X155407023Y-83780380D01*
X155835595Y-84732761D02*
X155978452Y-84780380D01*
X156216547Y-84780380D01*
X156311785Y-84732761D01*
X156359404Y-84685142D01*
X156407023Y-84589904D01*
X156407023Y-84494666D01*
X156359404Y-84399428D01*
X156311785Y-84351809D01*
X156216547Y-84304190D01*
X156026071Y-84256571D01*
X155930833Y-84208952D01*
X155883214Y-84161333D01*
X155835595Y-84066095D01*
X155835595Y-83970857D01*
X155883214Y-83875619D01*
X155930833Y-83828000D01*
X156026071Y-83780380D01*
X156264166Y-83780380D01*
X156407023Y-83828000D01*
X157168928Y-84256571D02*
X157311785Y-84304190D01*
X157359404Y-84351809D01*
X157407023Y-84447047D01*
X157407023Y-84589904D01*
X157359404Y-84685142D01*
X157311785Y-84732761D01*
X157216547Y-84780380D01*
X156835595Y-84780380D01*
X156835595Y-83780380D01*
X157168928Y-83780380D01*
X157264166Y-83828000D01*
X157311785Y-83875619D01*
X157359404Y-83970857D01*
X157359404Y-84066095D01*
X157311785Y-84161333D01*
X157264166Y-84208952D01*
X157168928Y-84256571D01*
X156835595Y-84256571D01*
%TO.C,PB1*%
X127452380Y-104052380D02*
X126976190Y-104385714D01*
X127452380Y-104623809D02*
X126452380Y-104623809D01*
X126452380Y-104242857D01*
X126500000Y-104147619D01*
X126547619Y-104100000D01*
X126642857Y-104052380D01*
X126785714Y-104052380D01*
X126880952Y-104100000D01*
X126928571Y-104147619D01*
X126976190Y-104242857D01*
X126976190Y-104623809D01*
X126928571Y-103623809D02*
X126928571Y-103290476D01*
X127452380Y-103147619D02*
X127452380Y-103623809D01*
X126452380Y-103623809D01*
X126452380Y-103147619D01*
X127404761Y-102766666D02*
X127452380Y-102623809D01*
X127452380Y-102385714D01*
X127404761Y-102290476D01*
X127357142Y-102242857D01*
X127261904Y-102195238D01*
X127166666Y-102195238D01*
X127071428Y-102242857D01*
X127023809Y-102290476D01*
X126976190Y-102385714D01*
X126928571Y-102576190D01*
X126880952Y-102671428D01*
X126833333Y-102719047D01*
X126738095Y-102766666D01*
X126642857Y-102766666D01*
X126547619Y-102719047D01*
X126500000Y-102671428D01*
X126452380Y-102576190D01*
X126452380Y-102338095D01*
X126500000Y-102195238D01*
X126928571Y-101766666D02*
X126928571Y-101433333D01*
X127452380Y-101290476D02*
X127452380Y-101766666D01*
X126452380Y-101766666D01*
X126452380Y-101290476D01*
X126452380Y-101004761D02*
X126452380Y-100433333D01*
X127452380Y-100719047D02*
X126452380Y-100719047D01*
%TO.C,R1*%
X135007023Y-97052380D02*
X134673690Y-96576190D01*
X134435595Y-97052380D02*
X134435595Y-96052380D01*
X134816547Y-96052380D01*
X134911785Y-96100000D01*
X134959404Y-96147619D01*
X135007023Y-96242857D01*
X135007023Y-96385714D01*
X134959404Y-96480952D01*
X134911785Y-96528571D01*
X134816547Y-96576190D01*
X134435595Y-96576190D01*
X135959404Y-97052380D02*
X135387976Y-97052380D01*
X135673690Y-97052380D02*
X135673690Y-96052380D01*
X135578452Y-96195238D01*
X135483214Y-96290476D01*
X135387976Y-96338095D01*
%TO.C,Q1*%
X144582261Y-99517619D02*
X144487023Y-99470000D01*
X144391785Y-99374761D01*
X144248928Y-99231904D01*
X144153690Y-99184285D01*
X144058452Y-99184285D01*
X144106071Y-99422380D02*
X144010833Y-99374761D01*
X143915595Y-99279523D01*
X143867976Y-99089047D01*
X143867976Y-98755714D01*
X143915595Y-98565238D01*
X144010833Y-98470000D01*
X144106071Y-98422380D01*
X144296547Y-98422380D01*
X144391785Y-98470000D01*
X144487023Y-98565238D01*
X144534642Y-98755714D01*
X144534642Y-99089047D01*
X144487023Y-99279523D01*
X144391785Y-99374761D01*
X144296547Y-99422380D01*
X144106071Y-99422380D01*
X145487023Y-99422380D02*
X144915595Y-99422380D01*
X145201309Y-99422380D02*
X145201309Y-98422380D01*
X145106071Y-98565238D01*
X145010833Y-98660476D01*
X144915595Y-98708095D01*
%TO.C,R3*%
X143859642Y-82252380D02*
X143526309Y-81776190D01*
X143288214Y-82252380D02*
X143288214Y-81252380D01*
X143669166Y-81252380D01*
X143764404Y-81300000D01*
X143812023Y-81347619D01*
X143859642Y-81442857D01*
X143859642Y-81585714D01*
X143812023Y-81680952D01*
X143764404Y-81728571D01*
X143669166Y-81776190D01*
X143288214Y-81776190D01*
X144192976Y-81252380D02*
X144812023Y-81252380D01*
X144478690Y-81633333D01*
X144621547Y-81633333D01*
X144716785Y-81680952D01*
X144764404Y-81728571D01*
X144812023Y-81823809D01*
X144812023Y-82061904D01*
X144764404Y-82157142D01*
X144716785Y-82204761D01*
X144621547Y-82252380D01*
X144335833Y-82252380D01*
X144240595Y-82204761D01*
X144192976Y-82157142D01*
%TO.C,X2*%
X129111785Y-111252380D02*
X128635595Y-111252380D01*
X128635595Y-110252380D01*
X129445119Y-110728571D02*
X129778452Y-110728571D01*
X129921309Y-111252380D02*
X129445119Y-111252380D01*
X129445119Y-110252380D01*
X129921309Y-110252380D01*
X130349880Y-111252380D02*
X130349880Y-110252380D01*
X130587976Y-110252380D01*
X130730833Y-110300000D01*
X130826071Y-110395238D01*
X130873690Y-110490476D01*
X130921309Y-110680952D01*
X130921309Y-110823809D01*
X130873690Y-111014285D01*
X130826071Y-111109523D01*
X130730833Y-111204761D01*
X130587976Y-111252380D01*
X130349880Y-111252380D01*
X131302261Y-111204761D02*
X131445119Y-111252380D01*
X131683214Y-111252380D01*
X131778452Y-111204761D01*
X131826071Y-111157142D01*
X131873690Y-111061904D01*
X131873690Y-110966666D01*
X131826071Y-110871428D01*
X131778452Y-110823809D01*
X131683214Y-110776190D01*
X131492738Y-110728571D01*
X131397500Y-110680952D01*
X131349880Y-110633333D01*
X131302261Y-110538095D01*
X131302261Y-110442857D01*
X131349880Y-110347619D01*
X131397500Y-110300000D01*
X131492738Y-110252380D01*
X131730833Y-110252380D01*
X131873690Y-110300000D01*
%TO.C,D2*%
X149188214Y-82252380D02*
X149188214Y-81252380D01*
X149426309Y-81252380D01*
X149569166Y-81300000D01*
X149664404Y-81395238D01*
X149712023Y-81490476D01*
X149759642Y-81680952D01*
X149759642Y-81823809D01*
X149712023Y-82014285D01*
X149664404Y-82109523D01*
X149569166Y-82204761D01*
X149426309Y-82252380D01*
X149188214Y-82252380D01*
X150140595Y-81347619D02*
X150188214Y-81300000D01*
X150283452Y-81252380D01*
X150521547Y-81252380D01*
X150616785Y-81300000D01*
X150664404Y-81347619D01*
X150712023Y-81442857D01*
X150712023Y-81538095D01*
X150664404Y-81680952D01*
X150092976Y-82252380D01*
X150712023Y-82252380D01*
X154835595Y-82240380D02*
X154835595Y-81240380D01*
X155216547Y-81240380D01*
X155311785Y-81288000D01*
X155359404Y-81335619D01*
X155407023Y-81430857D01*
X155407023Y-81573714D01*
X155359404Y-81668952D01*
X155311785Y-81716571D01*
X155216547Y-81764190D01*
X154835595Y-81764190D01*
X155740357Y-81240380D02*
X155978452Y-82240380D01*
X156168928Y-81526095D01*
X156359404Y-82240380D01*
X156597500Y-81240380D01*
X157549880Y-82240380D02*
X157216547Y-81764190D01*
X156978452Y-82240380D02*
X156978452Y-81240380D01*
X157359404Y-81240380D01*
X157454642Y-81288000D01*
X157502261Y-81335619D01*
X157549880Y-81430857D01*
X157549880Y-81573714D01*
X157502261Y-81668952D01*
X157454642Y-81716571D01*
X157359404Y-81764190D01*
X156978452Y-81764190D01*
%TO.C,R6*%
X142433333Y-108052380D02*
X142100000Y-107576190D01*
X141861904Y-108052380D02*
X141861904Y-107052380D01*
X142242857Y-107052380D01*
X142338095Y-107100000D01*
X142385714Y-107147619D01*
X142433333Y-107242857D01*
X142433333Y-107385714D01*
X142385714Y-107480952D01*
X142338095Y-107528571D01*
X142242857Y-107576190D01*
X141861904Y-107576190D01*
X143290476Y-107052380D02*
X143100000Y-107052380D01*
X143004761Y-107100000D01*
X142957142Y-107147619D01*
X142861904Y-107290476D01*
X142814285Y-107480952D01*
X142814285Y-107861904D01*
X142861904Y-107957142D01*
X142909523Y-108004761D01*
X143004761Y-108052380D01*
X143195238Y-108052380D01*
X143290476Y-108004761D01*
X143338095Y-107957142D01*
X143385714Y-107861904D01*
X143385714Y-107623809D01*
X143338095Y-107528571D01*
X143290476Y-107480952D01*
X143195238Y-107433333D01*
X143004761Y-107433333D01*
X142909523Y-107480952D01*
X142861904Y-107528571D01*
X142814285Y-107623809D01*
%TO.C,U4*%
X154535595Y-108452380D02*
X154535595Y-109261904D01*
X154583214Y-109357142D01*
X154630833Y-109404761D01*
X154726071Y-109452380D01*
X154916547Y-109452380D01*
X155011785Y-109404761D01*
X155059404Y-109357142D01*
X155107023Y-109261904D01*
X155107023Y-108452380D01*
X156011785Y-108785714D02*
X156011785Y-109452380D01*
X155773690Y-108404761D02*
X155535595Y-109119047D01*
X156154642Y-109119047D01*
%TO.C,R7*%
X122233333Y-87852380D02*
X121900000Y-87376190D01*
X121661904Y-87852380D02*
X121661904Y-86852380D01*
X122042857Y-86852380D01*
X122138095Y-86900000D01*
X122185714Y-86947619D01*
X122233333Y-87042857D01*
X122233333Y-87185714D01*
X122185714Y-87280952D01*
X122138095Y-87328571D01*
X122042857Y-87376190D01*
X121661904Y-87376190D01*
X122566666Y-86852380D02*
X123233333Y-86852380D01*
X122804761Y-87852380D01*
%TO.C,C1*%
X158075333Y-114757142D02*
X158027714Y-114804761D01*
X157884857Y-114852380D01*
X157789619Y-114852380D01*
X157646761Y-114804761D01*
X157551523Y-114709523D01*
X157503904Y-114614285D01*
X157456285Y-114423809D01*
X157456285Y-114280952D01*
X157503904Y-114090476D01*
X157551523Y-113995238D01*
X157646761Y-113900000D01*
X157789619Y-113852380D01*
X157884857Y-113852380D01*
X158027714Y-113900000D01*
X158075333Y-113947619D01*
X159027714Y-114852380D02*
X158456285Y-114852380D01*
X158742000Y-114852380D02*
X158742000Y-113852380D01*
X158646761Y-113995238D01*
X158551523Y-114090476D01*
X158456285Y-114138095D01*
%TO.C,R9*%
X155407023Y-92052380D02*
X155073690Y-91576190D01*
X154835595Y-92052380D02*
X154835595Y-91052380D01*
X155216547Y-91052380D01*
X155311785Y-91100000D01*
X155359404Y-91147619D01*
X155407023Y-91242857D01*
X155407023Y-91385714D01*
X155359404Y-91480952D01*
X155311785Y-91528571D01*
X155216547Y-91576190D01*
X154835595Y-91576190D01*
X155883214Y-92052380D02*
X156073690Y-92052380D01*
X156168928Y-92004761D01*
X156216547Y-91957142D01*
X156311785Y-91814285D01*
X156359404Y-91623809D01*
X156359404Y-91242857D01*
X156311785Y-91147619D01*
X156264166Y-91100000D01*
X156168928Y-91052380D01*
X155978452Y-91052380D01*
X155883214Y-91100000D01*
X155835595Y-91147619D01*
X155787976Y-91242857D01*
X155787976Y-91480952D01*
X155835595Y-91576190D01*
X155883214Y-91623809D01*
X155978452Y-91671428D01*
X156168928Y-91671428D01*
X156264166Y-91623809D01*
X156311785Y-91576190D01*
X156359404Y-91480952D01*
%TO.C,U2*%
X128540595Y-101052380D02*
X128540595Y-101861904D01*
X128588214Y-101957142D01*
X128635833Y-102004761D01*
X128731071Y-102052380D01*
X128921547Y-102052380D01*
X129016785Y-102004761D01*
X129064404Y-101957142D01*
X129112023Y-101861904D01*
X129112023Y-101052380D01*
X129540595Y-101147619D02*
X129588214Y-101100000D01*
X129683452Y-101052380D01*
X129921547Y-101052380D01*
X130016785Y-101100000D01*
X130064404Y-101147619D01*
X130112023Y-101242857D01*
X130112023Y-101338095D01*
X130064404Y-101480952D01*
X129492976Y-102052380D01*
X130112023Y-102052380D01*
%TO.C,C7*%
X134307023Y-105057142D02*
X134259404Y-105104761D01*
X134116547Y-105152380D01*
X134021309Y-105152380D01*
X133878452Y-105104761D01*
X133783214Y-105009523D01*
X133735595Y-104914285D01*
X133687976Y-104723809D01*
X133687976Y-104580952D01*
X133735595Y-104390476D01*
X133783214Y-104295238D01*
X133878452Y-104200000D01*
X134021309Y-104152380D01*
X134116547Y-104152380D01*
X134259404Y-104200000D01*
X134307023Y-104247619D01*
X134640357Y-104152380D02*
X135307023Y-104152380D01*
X134878452Y-105152380D01*
%TO.C,R4*%
X135007023Y-99252380D02*
X134673690Y-98776190D01*
X134435595Y-99252380D02*
X134435595Y-98252380D01*
X134816547Y-98252380D01*
X134911785Y-98300000D01*
X134959404Y-98347619D01*
X135007023Y-98442857D01*
X135007023Y-98585714D01*
X134959404Y-98680952D01*
X134911785Y-98728571D01*
X134816547Y-98776190D01*
X134435595Y-98776190D01*
X135864166Y-98585714D02*
X135864166Y-99252380D01*
X135626071Y-98204761D02*
X135387976Y-98919047D01*
X136007023Y-98919047D01*
%TO.C,R11*%
X155407023Y-89652380D02*
X155073690Y-89176190D01*
X154835595Y-89652380D02*
X154835595Y-88652380D01*
X155216547Y-88652380D01*
X155311785Y-88700000D01*
X155359404Y-88747619D01*
X155407023Y-88842857D01*
X155407023Y-88985714D01*
X155359404Y-89080952D01*
X155311785Y-89128571D01*
X155216547Y-89176190D01*
X154835595Y-89176190D01*
X156359404Y-89652380D02*
X155787976Y-89652380D01*
X156073690Y-89652380D02*
X156073690Y-88652380D01*
X155978452Y-88795238D01*
X155883214Y-88890476D01*
X155787976Y-88938095D01*
X157311785Y-89652380D02*
X156740357Y-89652380D01*
X157026071Y-89652380D02*
X157026071Y-88652380D01*
X156930833Y-88795238D01*
X156835595Y-88890476D01*
X156740357Y-88938095D01*
%TO.C,R12*%
X142907261Y-84780380D02*
X142573928Y-84304190D01*
X142335833Y-84780380D02*
X142335833Y-83780380D01*
X142716785Y-83780380D01*
X142812023Y-83828000D01*
X142859642Y-83875619D01*
X142907261Y-83970857D01*
X142907261Y-84113714D01*
X142859642Y-84208952D01*
X142812023Y-84256571D01*
X142716785Y-84304190D01*
X142335833Y-84304190D01*
X143859642Y-84780380D02*
X143288214Y-84780380D01*
X143573928Y-84780380D02*
X143573928Y-83780380D01*
X143478690Y-83923238D01*
X143383452Y-84018476D01*
X143288214Y-84066095D01*
X144240595Y-83875619D02*
X144288214Y-83828000D01*
X144383452Y-83780380D01*
X144621547Y-83780380D01*
X144716785Y-83828000D01*
X144764404Y-83875619D01*
X144812023Y-83970857D01*
X144812023Y-84066095D01*
X144764404Y-84208952D01*
X144192976Y-84780380D01*
X144812023Y-84780380D01*
%TO.C,C2*%
X141957142Y-113966666D02*
X142004761Y-114014285D01*
X142052380Y-114157142D01*
X142052380Y-114252380D01*
X142004761Y-114395238D01*
X141909523Y-114490476D01*
X141814285Y-114538095D01*
X141623809Y-114585714D01*
X141480952Y-114585714D01*
X141290476Y-114538095D01*
X141195238Y-114490476D01*
X141100000Y-114395238D01*
X141052380Y-114252380D01*
X141052380Y-114157142D01*
X141100000Y-114014285D01*
X141147619Y-113966666D01*
X141147619Y-113585714D02*
X141100000Y-113538095D01*
X141052380Y-113442857D01*
X141052380Y-113204761D01*
X141100000Y-113109523D01*
X141147619Y-113061904D01*
X141242857Y-113014285D01*
X141338095Y-113014285D01*
X141480952Y-113061904D01*
X142052380Y-113633333D01*
X142052380Y-113014285D01*
%TO.C,R8*%
X158433333Y-94252380D02*
X158100000Y-93776190D01*
X157861904Y-94252380D02*
X157861904Y-93252380D01*
X158242857Y-93252380D01*
X158338095Y-93300000D01*
X158385714Y-93347619D01*
X158433333Y-93442857D01*
X158433333Y-93585714D01*
X158385714Y-93680952D01*
X158338095Y-93728571D01*
X158242857Y-93776190D01*
X157861904Y-93776190D01*
X159004761Y-93680952D02*
X158909523Y-93633333D01*
X158861904Y-93585714D01*
X158814285Y-93490476D01*
X158814285Y-93442857D01*
X158861904Y-93347619D01*
X158909523Y-93300000D01*
X159004761Y-93252380D01*
X159195238Y-93252380D01*
X159290476Y-93300000D01*
X159338095Y-93347619D01*
X159385714Y-93442857D01*
X159385714Y-93490476D01*
X159338095Y-93585714D01*
X159290476Y-93633333D01*
X159195238Y-93680952D01*
X159004761Y-93680952D01*
X158909523Y-93728571D01*
X158861904Y-93776190D01*
X158814285Y-93871428D01*
X158814285Y-94061904D01*
X158861904Y-94157142D01*
X158909523Y-94204761D01*
X159004761Y-94252380D01*
X159195238Y-94252380D01*
X159290476Y-94204761D01*
X159338095Y-94157142D01*
X159385714Y-94061904D01*
X159385714Y-93871428D01*
X159338095Y-93776190D01*
X159290476Y-93728571D01*
X159195238Y-93680952D01*
%TO.C,C8*%
X146359642Y-94857142D02*
X146312023Y-94904761D01*
X146169166Y-94952380D01*
X146073928Y-94952380D01*
X145931071Y-94904761D01*
X145835833Y-94809523D01*
X145788214Y-94714285D01*
X145740595Y-94523809D01*
X145740595Y-94380952D01*
X145788214Y-94190476D01*
X145835833Y-94095238D01*
X145931071Y-94000000D01*
X146073928Y-93952380D01*
X146169166Y-93952380D01*
X146312023Y-94000000D01*
X146359642Y-94047619D01*
X146931071Y-94380952D02*
X146835833Y-94333333D01*
X146788214Y-94285714D01*
X146740595Y-94190476D01*
X146740595Y-94142857D01*
X146788214Y-94047619D01*
X146835833Y-94000000D01*
X146931071Y-93952380D01*
X147121547Y-93952380D01*
X147216785Y-94000000D01*
X147264404Y-94047619D01*
X147312023Y-94142857D01*
X147312023Y-94190476D01*
X147264404Y-94285714D01*
X147216785Y-94333333D01*
X147121547Y-94380952D01*
X146931071Y-94380952D01*
X146835833Y-94428571D01*
X146788214Y-94476190D01*
X146740595Y-94571428D01*
X146740595Y-94761904D01*
X146788214Y-94857142D01*
X146835833Y-94904761D01*
X146931071Y-94952380D01*
X147121547Y-94952380D01*
X147216785Y-94904761D01*
X147264404Y-94857142D01*
X147312023Y-94761904D01*
X147312023Y-94571428D01*
X147264404Y-94476190D01*
X147216785Y-94428571D01*
X147121547Y-94380952D01*
D12*
%TO.C,G\u002A\u002A\u002A*%
X122486160Y-111745360D02*
X122511560Y-111730120D01*
X122511560Y-111730120D02*
X122569980Y-111694560D01*
X122569980Y-111694560D02*
X122653800Y-111638680D01*
X122653800Y-111638680D02*
X122752860Y-111572640D01*
X122752860Y-111572640D02*
X122851920Y-111506600D01*
X122851920Y-111506600D02*
X122933200Y-111453260D01*
X122933200Y-111453260D02*
X122989080Y-111415160D01*
X122989080Y-111415160D02*
X123014480Y-111402460D01*
X123014480Y-111402460D02*
X123027180Y-111407540D01*
X123027180Y-111407540D02*
X123072900Y-111430400D01*
X123072900Y-111430400D02*
X123141480Y-111465960D01*
X123141480Y-111465960D02*
X123182120Y-111486280D01*
X123182120Y-111486280D02*
X123243080Y-111511680D01*
X123243080Y-111511680D02*
X123276100Y-111519300D01*
X123276100Y-111519300D02*
X123281180Y-111509140D01*
X123281180Y-111509140D02*
X123304040Y-111460880D01*
X123304040Y-111460880D02*
X123339600Y-111379600D01*
X123339600Y-111379600D02*
X123385320Y-111270380D01*
X123385320Y-111270380D02*
X123441200Y-111143380D01*
X123441200Y-111143380D02*
X123497080Y-111008760D01*
X123497080Y-111008760D02*
X123555500Y-110869060D01*
X123555500Y-110869060D02*
X123611380Y-110734440D01*
X123611380Y-110734440D02*
X123659640Y-110615060D01*
X123659640Y-110615060D02*
X123700280Y-110518540D01*
X123700280Y-110518540D02*
X123725680Y-110449960D01*
X123725680Y-110449960D02*
X123735840Y-110422020D01*
X123735840Y-110422020D02*
X123733300Y-110414400D01*
X123733300Y-110414400D02*
X123700280Y-110383920D01*
X123700280Y-110383920D02*
X123646940Y-110343280D01*
X123646940Y-110343280D02*
X123527560Y-110246760D01*
X123527560Y-110246760D02*
X123410720Y-110101980D01*
X123410720Y-110101980D02*
X123339600Y-109936880D01*
X123339600Y-109936880D02*
X123316740Y-109751460D01*
X123316740Y-109751460D02*
X123337060Y-109581280D01*
X123337060Y-109581280D02*
X123403100Y-109418720D01*
X123403100Y-109418720D02*
X123517400Y-109271400D01*
X123517400Y-109271400D02*
X123657100Y-109162180D01*
X123657100Y-109162180D02*
X123819660Y-109093600D01*
X123819660Y-109093600D02*
X124000000Y-109070740D01*
X124000000Y-109070740D02*
X124172720Y-109091060D01*
X124172720Y-109091060D02*
X124340360Y-109157100D01*
X124340360Y-109157100D02*
X124487680Y-109268860D01*
X124487680Y-109268860D02*
X124551180Y-109339980D01*
X124551180Y-109339980D02*
X124637540Y-109489840D01*
X124637540Y-109489840D02*
X124685800Y-109647320D01*
X124685800Y-109647320D02*
X124690880Y-109687960D01*
X124690880Y-109687960D02*
X124683260Y-109863220D01*
X124683260Y-109863220D02*
X124632460Y-110033400D01*
X124632460Y-110033400D02*
X124538480Y-110183260D01*
X124538480Y-110183260D02*
X124408940Y-110307720D01*
X124408940Y-110307720D02*
X124393700Y-110317880D01*
X124393700Y-110317880D02*
X124335280Y-110363600D01*
X124335280Y-110363600D02*
X124294640Y-110394080D01*
X124294640Y-110394080D02*
X124264160Y-110419480D01*
X124264160Y-110419480D02*
X124487680Y-110957960D01*
X124487680Y-110957960D02*
X124523240Y-111041780D01*
X124523240Y-111041780D02*
X124584200Y-111189100D01*
X124584200Y-111189100D02*
X124637540Y-111316100D01*
X124637540Y-111316100D02*
X124680720Y-111417700D01*
X124680720Y-111417700D02*
X124711200Y-111483740D01*
X124711200Y-111483740D02*
X124723900Y-111511680D01*
X124723900Y-111511680D02*
X124723900Y-111514220D01*
X124723900Y-111514220D02*
X124744220Y-111516760D01*
X124744220Y-111516760D02*
X124784860Y-111501520D01*
X124784860Y-111501520D02*
X124861060Y-111465960D01*
X124861060Y-111465960D02*
X124909320Y-111440560D01*
X124909320Y-111440560D02*
X124967740Y-111412620D01*
X124967740Y-111412620D02*
X124993140Y-111402460D01*
X124993140Y-111402460D02*
X125016000Y-111415160D01*
X125016000Y-111415160D02*
X125069340Y-111450720D01*
X125069340Y-111450720D02*
X125150620Y-111504060D01*
X125150620Y-111504060D02*
X125247140Y-111567560D01*
X125247140Y-111567560D02*
X125338580Y-111631060D01*
X125338580Y-111631060D02*
X125422400Y-111686940D01*
X125422400Y-111686940D02*
X125483360Y-111725040D01*
X125483360Y-111725040D02*
X125513840Y-111742820D01*
X125513840Y-111742820D02*
X125518920Y-111742820D01*
X125518920Y-111742820D02*
X125544320Y-111727580D01*
X125544320Y-111727580D02*
X125592580Y-111686940D01*
X125592580Y-111686940D02*
X125666240Y-111618360D01*
X125666240Y-111618360D02*
X125770380Y-111514220D01*
X125770380Y-111514220D02*
X125785620Y-111498980D01*
X125785620Y-111498980D02*
X125871980Y-111412620D01*
X125871980Y-111412620D02*
X125940560Y-111338960D01*
X125940560Y-111338960D02*
X125986280Y-111288160D01*
X125986280Y-111288160D02*
X126004060Y-111265300D01*
X126004060Y-111265300D02*
X125988820Y-111234820D01*
X125988820Y-111234820D02*
X125950720Y-111173860D01*
X125950720Y-111173860D02*
X125894840Y-111087500D01*
X125894840Y-111087500D02*
X125826260Y-110988440D01*
X125826260Y-110988440D02*
X125648460Y-110729360D01*
X125648460Y-110729360D02*
X125744980Y-110485520D01*
X125744980Y-110485520D02*
X125775460Y-110409320D01*
X125775460Y-110409320D02*
X125813560Y-110320420D01*
X125813560Y-110320420D02*
X125841500Y-110254380D01*
X125841500Y-110254380D02*
X125856740Y-110226440D01*
X125856740Y-110226440D02*
X125882140Y-110216280D01*
X125882140Y-110216280D02*
X125950720Y-110201040D01*
X125950720Y-110201040D02*
X126047240Y-110180720D01*
X126047240Y-110180720D02*
X126161540Y-110160400D01*
X126161540Y-110160400D02*
X126273300Y-110140080D01*
X126273300Y-110140080D02*
X126372360Y-110119760D01*
X126372360Y-110119760D02*
X126443480Y-110107060D01*
X126443480Y-110107060D02*
X126476500Y-110099440D01*
X126476500Y-110099440D02*
X126484120Y-110094360D01*
X126484120Y-110094360D02*
X126491740Y-110079120D01*
X126491740Y-110079120D02*
X126494280Y-110046100D01*
X126494280Y-110046100D02*
X126496820Y-109985140D01*
X126496820Y-109985140D02*
X126499360Y-109891160D01*
X126499360Y-109891160D02*
X126499360Y-109751460D01*
X126499360Y-109751460D02*
X126499360Y-109736220D01*
X126499360Y-109736220D02*
X126496820Y-109606680D01*
X126496820Y-109606680D02*
X126494280Y-109500000D01*
X126494280Y-109500000D02*
X126491740Y-109433960D01*
X126491740Y-109433960D02*
X126486660Y-109406020D01*
X126486660Y-109406020D02*
X126456180Y-109398400D01*
X126456180Y-109398400D02*
X126385060Y-109383160D01*
X126385060Y-109383160D02*
X126286000Y-109365380D01*
X126286000Y-109365380D02*
X126166620Y-109342520D01*
X126166620Y-109342520D02*
X126159000Y-109339980D01*
X126159000Y-109339980D02*
X126042160Y-109317120D01*
X126042160Y-109317120D02*
X125943100Y-109296800D01*
X125943100Y-109296800D02*
X125871980Y-109281560D01*
X125871980Y-109281560D02*
X125844040Y-109271400D01*
X125844040Y-109271400D02*
X125836420Y-109263780D01*
X125836420Y-109263780D02*
X125813560Y-109218060D01*
X125813560Y-109218060D02*
X125780540Y-109144400D01*
X125780540Y-109144400D02*
X125739900Y-109055500D01*
X125739900Y-109055500D02*
X125701800Y-108961520D01*
X125701800Y-108961520D02*
X125668780Y-108877700D01*
X125668780Y-108877700D02*
X125645920Y-108816740D01*
X125645920Y-108816740D02*
X125638300Y-108788800D01*
X125638300Y-108788800D02*
X125640840Y-108786260D01*
X125640840Y-108786260D02*
X125658620Y-108758320D01*
X125658620Y-108758320D02*
X125699260Y-108697360D01*
X125699260Y-108697360D02*
X125755140Y-108613540D01*
X125755140Y-108613540D02*
X125823720Y-108511940D01*
X125823720Y-108511940D02*
X125828800Y-108504320D01*
X125828800Y-108504320D02*
X125897380Y-108405260D01*
X125897380Y-108405260D02*
X125953260Y-108318900D01*
X125953260Y-108318900D02*
X125988820Y-108260480D01*
X125988820Y-108260480D02*
X126004060Y-108232540D01*
X126004060Y-108232540D02*
X126004060Y-108230000D01*
X126004060Y-108230000D02*
X125981200Y-108199520D01*
X125981200Y-108199520D02*
X125930400Y-108143640D01*
X125930400Y-108143640D02*
X125856740Y-108067440D01*
X125856740Y-108067440D02*
X125770380Y-107978540D01*
X125770380Y-107978540D02*
X125742440Y-107953140D01*
X125742440Y-107953140D02*
X125643380Y-107856620D01*
X125643380Y-107856620D02*
X125577340Y-107795660D01*
X125577340Y-107795660D02*
X125534160Y-107762640D01*
X125534160Y-107762640D02*
X125513840Y-107755020D01*
X125513840Y-107755020D02*
X125483360Y-107772800D01*
X125483360Y-107772800D02*
X125419860Y-107813440D01*
X125419860Y-107813440D02*
X125336040Y-107871860D01*
X125336040Y-107871860D02*
X125234440Y-107940440D01*
X125234440Y-107940440D02*
X125226820Y-107945520D01*
X125226820Y-107945520D02*
X125127760Y-108014100D01*
X125127760Y-108014100D02*
X125043940Y-108069980D01*
X125043940Y-108069980D02*
X124985520Y-108110620D01*
X124985520Y-108110620D02*
X124957580Y-108125860D01*
X124957580Y-108125860D02*
X124955040Y-108125860D01*
X124955040Y-108125860D02*
X124914400Y-108113160D01*
X124914400Y-108113160D02*
X124843280Y-108087760D01*
X124843280Y-108087760D02*
X124754380Y-108054740D01*
X124754380Y-108054740D02*
X124662940Y-108016640D01*
X124662940Y-108016640D02*
X124579120Y-107981080D01*
X124579120Y-107981080D02*
X124515620Y-107953140D01*
X124515620Y-107953140D02*
X124485140Y-107935360D01*
X124485140Y-107935360D02*
X124474980Y-107899800D01*
X124474980Y-107899800D02*
X124457200Y-107823600D01*
X124457200Y-107823600D02*
X124436880Y-107722000D01*
X124436880Y-107722000D02*
X124411480Y-107600080D01*
X124411480Y-107600080D02*
X124408940Y-107579760D01*
X124408940Y-107579760D02*
X124386080Y-107460380D01*
X124386080Y-107460380D02*
X124368300Y-107361320D01*
X124368300Y-107361320D02*
X124353060Y-107292740D01*
X124353060Y-107292740D02*
X124345440Y-107264800D01*
X124345440Y-107264800D02*
X124330200Y-107262260D01*
X124330200Y-107262260D02*
X124271780Y-107257180D01*
X124271780Y-107257180D02*
X124182880Y-107254640D01*
X124182880Y-107254640D02*
X124073660Y-107254640D01*
X124073660Y-107254640D02*
X123961900Y-107254640D01*
X123961900Y-107254640D02*
X123852680Y-107257180D01*
X123852680Y-107257180D02*
X123758700Y-107259720D01*
X123758700Y-107259720D02*
X123690120Y-107264800D01*
X123690120Y-107264800D02*
X123662180Y-107269880D01*
X123662180Y-107269880D02*
X123662180Y-107272420D01*
X123662180Y-107272420D02*
X123652020Y-107310520D01*
X123652020Y-107310520D02*
X123634240Y-107384180D01*
X123634240Y-107384180D02*
X123613920Y-107488320D01*
X123613920Y-107488320D02*
X123591060Y-107610240D01*
X123591060Y-107610240D02*
X123585980Y-107633100D01*
X123585980Y-107633100D02*
X123563120Y-107749940D01*
X123563120Y-107749940D02*
X123542800Y-107849000D01*
X123542800Y-107849000D02*
X123530100Y-107915040D01*
X123530100Y-107915040D02*
X123522480Y-107942980D01*
X123522480Y-107942980D02*
X123509780Y-107948060D01*
X123509780Y-107948060D02*
X123461520Y-107968380D01*
X123461520Y-107968380D02*
X123382780Y-108001400D01*
X123382780Y-108001400D02*
X123283720Y-108042040D01*
X123283720Y-108042040D02*
X123055120Y-108133480D01*
X123055120Y-108133480D02*
X122773180Y-107942980D01*
X122773180Y-107942980D02*
X122747780Y-107925200D01*
X122747780Y-107925200D02*
X122646180Y-107856620D01*
X122646180Y-107856620D02*
X122564900Y-107800740D01*
X122564900Y-107800740D02*
X122506480Y-107762640D01*
X122506480Y-107762640D02*
X122483620Y-107749940D01*
X122483620Y-107749940D02*
X122481080Y-107749940D01*
X122481080Y-107749940D02*
X122453140Y-107775340D01*
X122453140Y-107775340D02*
X122397260Y-107828680D01*
X122397260Y-107828680D02*
X122321060Y-107902340D01*
X122321060Y-107902340D02*
X122232160Y-107988700D01*
X122232160Y-107988700D02*
X122168660Y-108054740D01*
X122168660Y-108054740D02*
X122089920Y-108133480D01*
X122089920Y-108133480D02*
X122041660Y-108186820D01*
X122041660Y-108186820D02*
X122013720Y-108219840D01*
X122013720Y-108219840D02*
X122006100Y-108240160D01*
X122006100Y-108240160D02*
X122008640Y-108255400D01*
X122008640Y-108255400D02*
X122026420Y-108283340D01*
X122026420Y-108283340D02*
X122067060Y-108344300D01*
X122067060Y-108344300D02*
X122125480Y-108430660D01*
X122125480Y-108430660D02*
X122194060Y-108529720D01*
X122194060Y-108529720D02*
X122249940Y-108613540D01*
X122249940Y-108613540D02*
X122310900Y-108707520D01*
X122310900Y-108707520D02*
X122349000Y-108773560D01*
X122349000Y-108773560D02*
X122364240Y-108806580D01*
X122364240Y-108806580D02*
X122359160Y-108819280D01*
X122359160Y-108819280D02*
X122341380Y-108875160D01*
X122341380Y-108875160D02*
X122305820Y-108958980D01*
X122305820Y-108958980D02*
X122265180Y-109058040D01*
X122265180Y-109058040D02*
X122166120Y-109279020D01*
X122166120Y-109279020D02*
X122021340Y-109306960D01*
X122021340Y-109306960D02*
X121932440Y-109324740D01*
X121932440Y-109324740D02*
X121810520Y-109347600D01*
X121810520Y-109347600D02*
X121691140Y-109370460D01*
X121691140Y-109370460D02*
X121508260Y-109406020D01*
X121508260Y-109406020D02*
X121500640Y-110081660D01*
X121500640Y-110081660D02*
X121528580Y-110094360D01*
X121528580Y-110094360D02*
X121556520Y-110101980D01*
X121556520Y-110101980D02*
X121625100Y-110117220D01*
X121625100Y-110117220D02*
X121721620Y-110137540D01*
X121721620Y-110137540D02*
X121838460Y-110157860D01*
X121838460Y-110157860D02*
X121934980Y-110175640D01*
X121934980Y-110175640D02*
X122034040Y-110195960D01*
X122034040Y-110195960D02*
X122105160Y-110208660D01*
X122105160Y-110208660D02*
X122135640Y-110216280D01*
X122135640Y-110216280D02*
X122145800Y-110226440D01*
X122145800Y-110226440D02*
X122168660Y-110274700D01*
X122168660Y-110274700D02*
X122204220Y-110350900D01*
X122204220Y-110350900D02*
X122244860Y-110442340D01*
X122244860Y-110442340D02*
X122282960Y-110536320D01*
X122282960Y-110536320D02*
X122318520Y-110625220D01*
X122318520Y-110625220D02*
X122341380Y-110691260D01*
X122341380Y-110691260D02*
X122351540Y-110724280D01*
X122351540Y-110724280D02*
X122338840Y-110752220D01*
X122338840Y-110752220D02*
X122300740Y-110810640D01*
X122300740Y-110810640D02*
X122247400Y-110891920D01*
X122247400Y-110891920D02*
X122178820Y-110990980D01*
X122178820Y-110990980D02*
X122112780Y-111087500D01*
X122112780Y-111087500D02*
X122054360Y-111171320D01*
X122054360Y-111171320D02*
X122016260Y-111232280D01*
X122016260Y-111232280D02*
X121998480Y-111260220D01*
X121998480Y-111260220D02*
X122008640Y-111278000D01*
X122008640Y-111278000D02*
X122046740Y-111326260D01*
X122046740Y-111326260D02*
X122120400Y-111402460D01*
X122120400Y-111402460D02*
X122232160Y-111511680D01*
X122232160Y-111511680D02*
X122249940Y-111529460D01*
X122249940Y-111529460D02*
X122336300Y-111613280D01*
X122336300Y-111613280D02*
X122409960Y-111681860D01*
X122409960Y-111681860D02*
X122463300Y-111727580D01*
X122463300Y-111727580D02*
X122486160Y-111745360D01*
X122486160Y-111745360D02*
X122486160Y-111745360D01*
G36*
X124271780Y-107257180D02*
G01*
X124330200Y-107262260D01*
X124345440Y-107264800D01*
X124353060Y-107292740D01*
X124368300Y-107361320D01*
X124386080Y-107460380D01*
X124408940Y-107579760D01*
X124411480Y-107600080D01*
X124436880Y-107722000D01*
X124457200Y-107823600D01*
X124474980Y-107899800D01*
X124485140Y-107935360D01*
X124515620Y-107953140D01*
X124579120Y-107981080D01*
X124662940Y-108016640D01*
X124754380Y-108054740D01*
X124843280Y-108087760D01*
X124914400Y-108113160D01*
X124955040Y-108125860D01*
X124957580Y-108125860D01*
X124985520Y-108110620D01*
X125043940Y-108069980D01*
X125127760Y-108014100D01*
X125226820Y-107945520D01*
X125234440Y-107940440D01*
X125336040Y-107871860D01*
X125419860Y-107813440D01*
X125483360Y-107772800D01*
X125513840Y-107755020D01*
X125534160Y-107762640D01*
X125577340Y-107795660D01*
X125643380Y-107856620D01*
X125742440Y-107953140D01*
X125770380Y-107978540D01*
X125856740Y-108067440D01*
X125930400Y-108143640D01*
X125981200Y-108199520D01*
X126004060Y-108230000D01*
X126004060Y-108232540D01*
X125988820Y-108260480D01*
X125953260Y-108318900D01*
X125897380Y-108405260D01*
X125828800Y-108504320D01*
X125823720Y-108511940D01*
X125755140Y-108613540D01*
X125658620Y-108758320D01*
X125640840Y-108786260D01*
X125638300Y-108788800D01*
X125645920Y-108816740D01*
X125668780Y-108877700D01*
X125701800Y-108961520D01*
X125739900Y-109055500D01*
X125780540Y-109144400D01*
X125813560Y-109218060D01*
X125836420Y-109263780D01*
X125844040Y-109271400D01*
X125871980Y-109281560D01*
X125943100Y-109296800D01*
X126042160Y-109317120D01*
X126159000Y-109339980D01*
X126166620Y-109342520D01*
X126286000Y-109365380D01*
X126385060Y-109383160D01*
X126456180Y-109398400D01*
X126486660Y-109406020D01*
X126491740Y-109433960D01*
X126494280Y-109500000D01*
X126496820Y-109606680D01*
X126499360Y-109736220D01*
X126499360Y-109891160D01*
X126496820Y-109985140D01*
X126494280Y-110046100D01*
X126491740Y-110079120D01*
X126484120Y-110094360D01*
X126476500Y-110099440D01*
X126443480Y-110107060D01*
X126372360Y-110119760D01*
X126273300Y-110140080D01*
X126161540Y-110160400D01*
X126047240Y-110180720D01*
X125950720Y-110201040D01*
X125882140Y-110216280D01*
X125856740Y-110226440D01*
X125841500Y-110254380D01*
X125813560Y-110320420D01*
X125775460Y-110409320D01*
X125744980Y-110485520D01*
X125648460Y-110729360D01*
X125826260Y-110988440D01*
X125894840Y-111087500D01*
X125950720Y-111173860D01*
X125988820Y-111234820D01*
X126004060Y-111265300D01*
X125986280Y-111288160D01*
X125940560Y-111338960D01*
X125871980Y-111412620D01*
X125666240Y-111618360D01*
X125592580Y-111686940D01*
X125544320Y-111727580D01*
X125518920Y-111742820D01*
X125513840Y-111742820D01*
X125483360Y-111725040D01*
X125422400Y-111686940D01*
X125338580Y-111631060D01*
X125247140Y-111567560D01*
X125150620Y-111504060D01*
X125069340Y-111450720D01*
X125016000Y-111415160D01*
X124993140Y-111402460D01*
X124967740Y-111412620D01*
X124909320Y-111440560D01*
X124861060Y-111465960D01*
X124784860Y-111501520D01*
X124744220Y-111516760D01*
X124723900Y-111514220D01*
X124723900Y-111511680D01*
X124711200Y-111483740D01*
X124680720Y-111417700D01*
X124637540Y-111316100D01*
X124584200Y-111189100D01*
X124523240Y-111041780D01*
X124487680Y-110957960D01*
X124264160Y-110419480D01*
X124294640Y-110394080D01*
X124335280Y-110363600D01*
X124393700Y-110317880D01*
X124408940Y-110307720D01*
X124538480Y-110183260D01*
X124632460Y-110033400D01*
X124683260Y-109863220D01*
X124690880Y-109687960D01*
X124685800Y-109647320D01*
X124637540Y-109489840D01*
X124551180Y-109339980D01*
X124487680Y-109268860D01*
X124340360Y-109157100D01*
X124172720Y-109091060D01*
X124000000Y-109070740D01*
X123819660Y-109093600D01*
X123657100Y-109162180D01*
X123517400Y-109271400D01*
X123403100Y-109418720D01*
X123337060Y-109581280D01*
X123316740Y-109751460D01*
X123339600Y-109936880D01*
X123410720Y-110101980D01*
X123527560Y-110246760D01*
X123646940Y-110343280D01*
X123700280Y-110383920D01*
X123733300Y-110414400D01*
X123735840Y-110422020D01*
X123725680Y-110449960D01*
X123700280Y-110518540D01*
X123659640Y-110615060D01*
X123611380Y-110734440D01*
X123555500Y-110869060D01*
X123497080Y-111008760D01*
X123441200Y-111143380D01*
X123385320Y-111270380D01*
X123339600Y-111379600D01*
X123304040Y-111460880D01*
X123281180Y-111509140D01*
X123276100Y-111519300D01*
X123243080Y-111511680D01*
X123182120Y-111486280D01*
X123141480Y-111465960D01*
X123072900Y-111430400D01*
X123027180Y-111407540D01*
X123014480Y-111402460D01*
X122989080Y-111415160D01*
X122933200Y-111453260D01*
X122851920Y-111506600D01*
X122569980Y-111694560D01*
X122511560Y-111730120D01*
X122486160Y-111745360D01*
X122463300Y-111727580D01*
X122409960Y-111681860D01*
X122336300Y-111613280D01*
X122249940Y-111529460D01*
X122232160Y-111511680D01*
X122120400Y-111402460D01*
X122046740Y-111326260D01*
X122008640Y-111278000D01*
X121998480Y-111260220D01*
X122016260Y-111232280D01*
X122054360Y-111171320D01*
X122112780Y-111087500D01*
X122178820Y-110990980D01*
X122247400Y-110891920D01*
X122300740Y-110810640D01*
X122338840Y-110752220D01*
X122351540Y-110724280D01*
X122341380Y-110691260D01*
X122318520Y-110625220D01*
X122282960Y-110536320D01*
X122244860Y-110442340D01*
X122204220Y-110350900D01*
X122168660Y-110274700D01*
X122145800Y-110226440D01*
X122135640Y-110216280D01*
X122105160Y-110208660D01*
X122034040Y-110195960D01*
X121934980Y-110175640D01*
X121838460Y-110157860D01*
X121721620Y-110137540D01*
X121625100Y-110117220D01*
X121556520Y-110101980D01*
X121528580Y-110094360D01*
X121500640Y-110081660D01*
X121508260Y-109406020D01*
X121691140Y-109370460D01*
X121810520Y-109347600D01*
X121932440Y-109324740D01*
X122021340Y-109306960D01*
X122166120Y-109279020D01*
X122265180Y-109058040D01*
X122305820Y-108958980D01*
X122341380Y-108875160D01*
X122359160Y-108819280D01*
X122364240Y-108806580D01*
X122349000Y-108773560D01*
X122310900Y-108707520D01*
X122249940Y-108613540D01*
X122194060Y-108529720D01*
X122125480Y-108430660D01*
X122067060Y-108344300D01*
X122026420Y-108283340D01*
X122008640Y-108255400D01*
X122006100Y-108240160D01*
X122013720Y-108219840D01*
X122041660Y-108186820D01*
X122089920Y-108133480D01*
X122168660Y-108054740D01*
X122232160Y-107988700D01*
X122321060Y-107902340D01*
X122397260Y-107828680D01*
X122453140Y-107775340D01*
X122481080Y-107749940D01*
X122483620Y-107749940D01*
X122506480Y-107762640D01*
X122564900Y-107800740D01*
X122646180Y-107856620D01*
X122747780Y-107925200D01*
X122773180Y-107942980D01*
X123055120Y-108133480D01*
X123283720Y-108042040D01*
X123382780Y-108001400D01*
X123461520Y-107968380D01*
X123509780Y-107948060D01*
X123522480Y-107942980D01*
X123530100Y-107915040D01*
X123542800Y-107849000D01*
X123563120Y-107749940D01*
X123585980Y-107633100D01*
X123591060Y-107610240D01*
X123613920Y-107488320D01*
X123634240Y-107384180D01*
X123652020Y-107310520D01*
X123662180Y-107272420D01*
X123662180Y-107269880D01*
X123690120Y-107264800D01*
X123758700Y-107259720D01*
X123852680Y-107257180D01*
X123961900Y-107254640D01*
X124182880Y-107254640D01*
X124271780Y-107257180D01*
G37*
X124271780Y-107257180D02*
X124330200Y-107262260D01*
X124345440Y-107264800D01*
X124353060Y-107292740D01*
X124368300Y-107361320D01*
X124386080Y-107460380D01*
X124408940Y-107579760D01*
X124411480Y-107600080D01*
X124436880Y-107722000D01*
X124457200Y-107823600D01*
X124474980Y-107899800D01*
X124485140Y-107935360D01*
X124515620Y-107953140D01*
X124579120Y-107981080D01*
X124662940Y-108016640D01*
X124754380Y-108054740D01*
X124843280Y-108087760D01*
X124914400Y-108113160D01*
X124955040Y-108125860D01*
X124957580Y-108125860D01*
X124985520Y-108110620D01*
X125043940Y-108069980D01*
X125127760Y-108014100D01*
X125226820Y-107945520D01*
X125234440Y-107940440D01*
X125336040Y-107871860D01*
X125419860Y-107813440D01*
X125483360Y-107772800D01*
X125513840Y-107755020D01*
X125534160Y-107762640D01*
X125577340Y-107795660D01*
X125643380Y-107856620D01*
X125742440Y-107953140D01*
X125770380Y-107978540D01*
X125856740Y-108067440D01*
X125930400Y-108143640D01*
X125981200Y-108199520D01*
X126004060Y-108230000D01*
X126004060Y-108232540D01*
X125988820Y-108260480D01*
X125953260Y-108318900D01*
X125897380Y-108405260D01*
X125828800Y-108504320D01*
X125823720Y-108511940D01*
X125755140Y-108613540D01*
X125658620Y-108758320D01*
X125640840Y-108786260D01*
X125638300Y-108788800D01*
X125645920Y-108816740D01*
X125668780Y-108877700D01*
X125701800Y-108961520D01*
X125739900Y-109055500D01*
X125780540Y-109144400D01*
X125813560Y-109218060D01*
X125836420Y-109263780D01*
X125844040Y-109271400D01*
X125871980Y-109281560D01*
X125943100Y-109296800D01*
X126042160Y-109317120D01*
X126159000Y-109339980D01*
X126166620Y-109342520D01*
X126286000Y-109365380D01*
X126385060Y-109383160D01*
X126456180Y-109398400D01*
X126486660Y-109406020D01*
X126491740Y-109433960D01*
X126494280Y-109500000D01*
X126496820Y-109606680D01*
X126499360Y-109736220D01*
X126499360Y-109891160D01*
X126496820Y-109985140D01*
X126494280Y-110046100D01*
X126491740Y-110079120D01*
X126484120Y-110094360D01*
X126476500Y-110099440D01*
X126443480Y-110107060D01*
X126372360Y-110119760D01*
X126273300Y-110140080D01*
X126161540Y-110160400D01*
X126047240Y-110180720D01*
X125950720Y-110201040D01*
X125882140Y-110216280D01*
X125856740Y-110226440D01*
X125841500Y-110254380D01*
X125813560Y-110320420D01*
X125775460Y-110409320D01*
X125744980Y-110485520D01*
X125648460Y-110729360D01*
X125826260Y-110988440D01*
X125894840Y-111087500D01*
X125950720Y-111173860D01*
X125988820Y-111234820D01*
X126004060Y-111265300D01*
X125986280Y-111288160D01*
X125940560Y-111338960D01*
X125871980Y-111412620D01*
X125666240Y-111618360D01*
X125592580Y-111686940D01*
X125544320Y-111727580D01*
X125518920Y-111742820D01*
X125513840Y-111742820D01*
X125483360Y-111725040D01*
X125422400Y-111686940D01*
X125338580Y-111631060D01*
X125247140Y-111567560D01*
X125150620Y-111504060D01*
X125069340Y-111450720D01*
X125016000Y-111415160D01*
X124993140Y-111402460D01*
X124967740Y-111412620D01*
X124909320Y-111440560D01*
X124861060Y-111465960D01*
X124784860Y-111501520D01*
X124744220Y-111516760D01*
X124723900Y-111514220D01*
X124723900Y-111511680D01*
X124711200Y-111483740D01*
X124680720Y-111417700D01*
X124637540Y-111316100D01*
X124584200Y-111189100D01*
X124523240Y-111041780D01*
X124487680Y-110957960D01*
X124264160Y-110419480D01*
X124294640Y-110394080D01*
X124335280Y-110363600D01*
X124393700Y-110317880D01*
X124408940Y-110307720D01*
X124538480Y-110183260D01*
X124632460Y-110033400D01*
X124683260Y-109863220D01*
X124690880Y-109687960D01*
X124685800Y-109647320D01*
X124637540Y-109489840D01*
X124551180Y-109339980D01*
X124487680Y-109268860D01*
X124340360Y-109157100D01*
X124172720Y-109091060D01*
X124000000Y-109070740D01*
X123819660Y-109093600D01*
X123657100Y-109162180D01*
X123517400Y-109271400D01*
X123403100Y-109418720D01*
X123337060Y-109581280D01*
X123316740Y-109751460D01*
X123339600Y-109936880D01*
X123410720Y-110101980D01*
X123527560Y-110246760D01*
X123646940Y-110343280D01*
X123700280Y-110383920D01*
X123733300Y-110414400D01*
X123735840Y-110422020D01*
X123725680Y-110449960D01*
X123700280Y-110518540D01*
X123659640Y-110615060D01*
X123611380Y-110734440D01*
X123555500Y-110869060D01*
X123497080Y-111008760D01*
X123441200Y-111143380D01*
X123385320Y-111270380D01*
X123339600Y-111379600D01*
X123304040Y-111460880D01*
X123281180Y-111509140D01*
X123276100Y-111519300D01*
X123243080Y-111511680D01*
X123182120Y-111486280D01*
X123141480Y-111465960D01*
X123072900Y-111430400D01*
X123027180Y-111407540D01*
X123014480Y-111402460D01*
X122989080Y-111415160D01*
X122933200Y-111453260D01*
X122851920Y-111506600D01*
X122569980Y-111694560D01*
X122511560Y-111730120D01*
X122486160Y-111745360D01*
X122463300Y-111727580D01*
X122409960Y-111681860D01*
X122336300Y-111613280D01*
X122249940Y-111529460D01*
X122232160Y-111511680D01*
X122120400Y-111402460D01*
X122046740Y-111326260D01*
X122008640Y-111278000D01*
X121998480Y-111260220D01*
X122016260Y-111232280D01*
X122054360Y-111171320D01*
X122112780Y-111087500D01*
X122178820Y-110990980D01*
X122247400Y-110891920D01*
X122300740Y-110810640D01*
X122338840Y-110752220D01*
X122351540Y-110724280D01*
X122341380Y-110691260D01*
X122318520Y-110625220D01*
X122282960Y-110536320D01*
X122244860Y-110442340D01*
X122204220Y-110350900D01*
X122168660Y-110274700D01*
X122145800Y-110226440D01*
X122135640Y-110216280D01*
X122105160Y-110208660D01*
X122034040Y-110195960D01*
X121934980Y-110175640D01*
X121838460Y-110157860D01*
X121721620Y-110137540D01*
X121625100Y-110117220D01*
X121556520Y-110101980D01*
X121528580Y-110094360D01*
X121500640Y-110081660D01*
X121508260Y-109406020D01*
X121691140Y-109370460D01*
X121810520Y-109347600D01*
X121932440Y-109324740D01*
X122021340Y-109306960D01*
X122166120Y-109279020D01*
X122265180Y-109058040D01*
X122305820Y-108958980D01*
X122341380Y-108875160D01*
X122359160Y-108819280D01*
X122364240Y-108806580D01*
X122349000Y-108773560D01*
X122310900Y-108707520D01*
X122249940Y-108613540D01*
X122194060Y-108529720D01*
X122125480Y-108430660D01*
X122067060Y-108344300D01*
X122026420Y-108283340D01*
X122008640Y-108255400D01*
X122006100Y-108240160D01*
X122013720Y-108219840D01*
X122041660Y-108186820D01*
X122089920Y-108133480D01*
X122168660Y-108054740D01*
X122232160Y-107988700D01*
X122321060Y-107902340D01*
X122397260Y-107828680D01*
X122453140Y-107775340D01*
X122481080Y-107749940D01*
X122483620Y-107749940D01*
X122506480Y-107762640D01*
X122564900Y-107800740D01*
X122646180Y-107856620D01*
X122747780Y-107925200D01*
X122773180Y-107942980D01*
X123055120Y-108133480D01*
X123283720Y-108042040D01*
X123382780Y-108001400D01*
X123461520Y-107968380D01*
X123509780Y-107948060D01*
X123522480Y-107942980D01*
X123530100Y-107915040D01*
X123542800Y-107849000D01*
X123563120Y-107749940D01*
X123585980Y-107633100D01*
X123591060Y-107610240D01*
X123613920Y-107488320D01*
X123634240Y-107384180D01*
X123652020Y-107310520D01*
X123662180Y-107272420D01*
X123662180Y-107269880D01*
X123690120Y-107264800D01*
X123758700Y-107259720D01*
X123852680Y-107257180D01*
X123961900Y-107254640D01*
X124182880Y-107254640D01*
X124271780Y-107257180D01*
D13*
%TO.C,X1*%
X155310500Y-101778000D02*
X155310500Y-103810000D01*
X155310500Y-103810000D02*
X157342500Y-103810000D01*
X157342500Y-96190000D02*
X155310500Y-96190000D01*
X155310500Y-96190000D02*
X155310500Y-98222000D01*
X159628500Y-103810000D02*
X159882500Y-103810000D01*
X159628500Y-96190000D02*
X159882500Y-96190000D01*
%TO.C,C9*%
X149138748Y-97535000D02*
X149661252Y-97535000D01*
X149138748Y-96065000D02*
X149661252Y-96065000D01*
%TO.C,C6*%
X123135000Y-93938748D02*
X123135000Y-94461252D01*
X121665000Y-93938748D02*
X121665000Y-94461252D01*
%TO.C,R10*%
X153027064Y-87535000D02*
X152572936Y-87535000D01*
X153027064Y-86065000D02*
X152572936Y-86065000D01*
%TO.C,U1*%
X125405000Y-91575000D02*
X138605000Y-91575000D01*
X138605000Y-91575000D02*
X138605000Y-80075000D01*
X138605000Y-80075000D02*
X125405000Y-80075000D01*
X125405000Y-80075000D02*
X125405000Y-91575000D01*
%TO.C,D1*%
X149062000Y-100584000D02*
X149062000Y-99784000D01*
X152182000Y-100584000D02*
X152182000Y-98784000D01*
X152182000Y-100584000D02*
X152182000Y-101384000D01*
X149062000Y-100584000D02*
X149062000Y-101384000D01*
%TO.C,U3*%
X143186000Y-92055000D02*
X143186000Y-92780000D01*
X148406000Y-87560000D02*
X147681000Y-87560000D01*
X148406000Y-88285000D02*
X148406000Y-87560000D01*
X148406000Y-92780000D02*
X147681000Y-92780000D01*
X143186000Y-87560000D02*
X143911000Y-87560000D01*
X148406000Y-92055000D02*
X148406000Y-92780000D01*
X143186000Y-88285000D02*
X143186000Y-87560000D01*
%TO.C,R2*%
X133627064Y-95135000D02*
X133172936Y-95135000D01*
X133627064Y-93665000D02*
X133172936Y-93665000D01*
%TO.C,C4*%
X123165000Y-83061252D02*
X123165000Y-82538748D01*
X124635000Y-83061252D02*
X124635000Y-82538748D01*
%TO.C,C3*%
X120865000Y-83061252D02*
X120865000Y-82538748D01*
X122335000Y-83061252D02*
X122335000Y-82538748D01*
%TO.C,Q2*%
X141180000Y-105760000D02*
X140250000Y-105760000D01*
X138020000Y-105760000D02*
X138950000Y-105760000D01*
X138020000Y-105760000D02*
X138020000Y-104300000D01*
X141180000Y-105760000D02*
X141180000Y-102600000D01*
%TO.C,C5*%
X131833252Y-106198500D02*
X131310748Y-106198500D01*
X131833252Y-107668500D02*
X131310748Y-107668500D01*
%TO.C,R5*%
X139735000Y-98772936D02*
X139735000Y-99227064D01*
X138265000Y-98772936D02*
X138265000Y-99227064D01*
%TO.C,D3*%
X154635000Y-83368000D02*
X151775000Y-83368000D01*
X151775000Y-85288000D02*
X154635000Y-85288000D01*
X154635000Y-85288000D02*
X154635000Y-83368000D01*
%TO.C,PB1*%
X126000000Y-99350000D02*
X126000000Y-105850000D01*
X122000000Y-99350000D02*
X123000000Y-99350000D01*
X126000000Y-99350000D02*
X125000000Y-99350000D01*
X123000000Y-105850000D02*
X122000000Y-105850000D01*
X122000000Y-105850000D02*
X122000000Y-99350000D01*
X126000000Y-105850000D02*
X125000000Y-105850000D01*
%TO.C,R1*%
X132627064Y-95865000D02*
X132172936Y-95865000D01*
X132627064Y-97335000D02*
X132172936Y-97335000D01*
%TO.C,Q1*%
X140420000Y-98240000D02*
X140420000Y-101400000D01*
X143580000Y-98240000D02*
X143580000Y-99700000D01*
X143580000Y-98240000D02*
X142650000Y-98240000D01*
X140420000Y-98240000D02*
X141350000Y-98240000D01*
%TO.C,R3*%
X146705936Y-82523000D02*
X147160064Y-82523000D01*
X146705936Y-81053000D02*
X147160064Y-81053000D01*
%TO.C,X2*%
X131104000Y-119510000D02*
X131104000Y-115150000D01*
X138664000Y-111690000D02*
X137744000Y-111690000D01*
X129744000Y-113290000D02*
X129464000Y-113290000D01*
X131104000Y-115150000D02*
X136104000Y-115150000D01*
X136104000Y-115150000D02*
X136104000Y-119510000D01*
X138664000Y-113290000D02*
X137744000Y-113290000D01*
X137744000Y-113290000D02*
X137464000Y-113290000D01*
X138664000Y-119510000D02*
X138664000Y-111690000D01*
X128544000Y-119510000D02*
X138664000Y-119510000D01*
X129464000Y-111690000D02*
X128544000Y-111690000D01*
X129304000Y-117250000D02*
X130304000Y-117250000D01*
X129744000Y-113290000D02*
X129744000Y-112075000D01*
X137904000Y-117250000D02*
X136904000Y-117250000D01*
X129304000Y-115650000D02*
X129304000Y-117250000D01*
X137904000Y-115650000D02*
X137904000Y-117250000D01*
X128544000Y-113290000D02*
X129464000Y-113290000D01*
X128544000Y-111690000D02*
X128544000Y-119510000D01*
X130304000Y-115650000D02*
X129304000Y-115650000D01*
X136904000Y-117250000D02*
X136904000Y-115650000D01*
X130304000Y-117250000D02*
X130304000Y-119510000D01*
X129804000Y-117250000D02*
X129804000Y-119510000D01*
X130304000Y-117250000D02*
X130304000Y-115650000D01*
X137744000Y-111690000D02*
X137744000Y-113290000D01*
X136904000Y-115650000D02*
X137904000Y-115650000D01*
X129464000Y-113290000D02*
X129464000Y-111690000D01*
%TO.C,D2*%
X154635000Y-82748000D02*
X154635000Y-80828000D01*
X151775000Y-82748000D02*
X154635000Y-82748000D01*
X154635000Y-80828000D02*
X151775000Y-80828000D01*
%TO.C,R6*%
X143335000Y-105227064D02*
X143335000Y-104772936D01*
X141865000Y-105227064D02*
X141865000Y-104772936D01*
%TO.C,U4*%
X148390000Y-115860000D02*
X148390000Y-109850000D01*
X148390000Y-109850000D02*
X149650000Y-109850000D01*
X155210000Y-109850000D02*
X153950000Y-109850000D01*
X155210000Y-113610000D02*
X155210000Y-109850000D01*
%TO.C,R7*%
X123135000Y-89772936D02*
X123135000Y-90227064D01*
X121665000Y-89772936D02*
X121665000Y-90227064D01*
%TO.C,C1*%
X157507000Y-112021252D02*
X157507000Y-111498748D01*
X158977000Y-112021252D02*
X158977000Y-111498748D01*
%TO.C,R9*%
X153027064Y-92335000D02*
X152572936Y-92335000D01*
X153027064Y-90865000D02*
X152572936Y-90865000D01*
%TO.C,U2*%
X132700000Y-102200000D02*
X132700000Y-102700000D01*
X130500000Y-100500000D02*
X131000000Y-100500000D01*
X132200000Y-102700000D02*
X132200000Y-102700000D01*
X131000000Y-100500000D02*
X131000000Y-100500000D01*
X130500000Y-102200000D02*
X130500000Y-102200000D01*
X130500000Y-101000000D02*
X130500000Y-100500000D01*
X132700000Y-100500000D02*
X132700000Y-100500000D01*
X132700000Y-101000000D02*
X132700000Y-100500000D01*
X132700000Y-102700000D02*
X132200000Y-102700000D01*
X130500000Y-102700000D02*
X130500000Y-102200000D01*
X131000000Y-102700000D02*
X130500000Y-102700000D01*
%TO.C,C7*%
X131833252Y-103912500D02*
X131310748Y-103912500D01*
X131833252Y-105382500D02*
X131310748Y-105382500D01*
%TO.C,R4*%
X132627064Y-98065000D02*
X132172936Y-98065000D01*
X132627064Y-99535000D02*
X132172936Y-99535000D01*
%TO.C,R11*%
X152572936Y-88465000D02*
X153027064Y-88465000D01*
X152572936Y-89935000D02*
X153027064Y-89935000D01*
%TO.C,R12*%
X146705936Y-85063000D02*
X147160064Y-85063000D01*
X146705936Y-83593000D02*
X147160064Y-83593000D01*
%TO.C,C2*%
X146340000Y-110792000D02*
X146340000Y-111292000D01*
X142520000Y-112596437D02*
X142520000Y-116052000D01*
X142520000Y-116052000D02*
X143720000Y-116052000D01*
X147040000Y-112596437D02*
X147040000Y-116052000D01*
X143584437Y-111532000D02*
X142520000Y-112596437D01*
X146590000Y-111042000D02*
X146090000Y-111042000D01*
X145975563Y-111532000D02*
X145840000Y-111532000D01*
X143584437Y-111532000D02*
X143720000Y-111532000D01*
X147040000Y-116052000D02*
X145840000Y-116052000D01*
X145975563Y-111532000D02*
X147040000Y-112596437D01*
%TO.C,R8*%
X157865000Y-91427064D02*
X157865000Y-90972936D01*
X159335000Y-91427064D02*
X159335000Y-90972936D01*
%TO.C,C8*%
X149138748Y-95135000D02*
X149661252Y-95135000D01*
X149138748Y-93665000D02*
X149661252Y-93665000D01*
%TD*%
%LPC*%
D14*
%TO.C,X1*%
X156162500Y-97925000D03*
X156162500Y-102075000D03*
D15*
X155937500Y-101300000D03*
X155937500Y-100650000D03*
X155937500Y-100000000D03*
X155937500Y-99350000D03*
X155937500Y-98700000D03*
D16*
X158612500Y-98800000D03*
X158612500Y-96050000D03*
X158612500Y-101200000D03*
X158612500Y-103950000D03*
%TD*%
D17*
%TO.C,C9*%
X148362500Y-96800000D03*
X150437500Y-96800000D03*
%TD*%
D18*
%TO.C,C6*%
X122400000Y-93162500D03*
X122400000Y-95237500D03*
%TD*%
D19*
%TO.C,R10*%
X153800000Y-86800000D03*
X151800000Y-86800000D03*
%TD*%
D20*
%TO.C,U1*%
X126130000Y-81000000D03*
X126130000Y-90900000D03*
X138030000Y-90900000D03*
X138030000Y-81000000D03*
D21*
X132080000Y-85950000D03*
X134055000Y-83975000D03*
X132080000Y-87925000D03*
X134055000Y-85950000D03*
X130105000Y-85950000D03*
X134055000Y-87925000D03*
X132080000Y-83975000D03*
X130105000Y-87925000D03*
D22*
X130130000Y-83975000D03*
D23*
X127280000Y-81050000D03*
X128080000Y-81050000D03*
X128880000Y-81050000D03*
X129680000Y-81050000D03*
X130480000Y-81050000D03*
X131280000Y-81050000D03*
X132080000Y-81050000D03*
X132880000Y-81050000D03*
X133680000Y-81050000D03*
X134480000Y-81050000D03*
X135280000Y-81050000D03*
X136080000Y-81050000D03*
X136880000Y-81050000D03*
X136880000Y-81050000D03*
D24*
X137980000Y-82000000D03*
X137980000Y-82750000D03*
X137980000Y-83550000D03*
X137980000Y-84350000D03*
X137980000Y-85150000D03*
X137980000Y-85950000D03*
X137980000Y-86750000D03*
X137980000Y-87550000D03*
X137980000Y-88350000D03*
X137980000Y-89150000D03*
X137980000Y-89950000D03*
D23*
X136880000Y-90850000D03*
X136080000Y-90850000D03*
X135280000Y-90850000D03*
X134480000Y-90850000D03*
X133680000Y-90850000D03*
X132880000Y-90850000D03*
X132080000Y-90850000D03*
X131280000Y-90850000D03*
X130480000Y-90850000D03*
X129680000Y-90850000D03*
X128880000Y-90850000D03*
X128080000Y-90850000D03*
X127280000Y-90850000D03*
D24*
X126180000Y-89900000D03*
X126180000Y-89150000D03*
X126180000Y-88350000D03*
X126180000Y-87550000D03*
X126180000Y-86750000D03*
X126180000Y-85950000D03*
X126180000Y-85150000D03*
X126180000Y-84350000D03*
X126180000Y-83550000D03*
X126180000Y-82750000D03*
X126180000Y-81950000D03*
%TD*%
D25*
%TO.C,D1*%
X151572000Y-99446500D03*
X150622000Y-99446500D03*
X149672000Y-99446500D03*
X149672000Y-101721500D03*
X151572000Y-101721500D03*
%TD*%
D26*
%TO.C,U3*%
X145796000Y-90170000D03*
D27*
X143346000Y-91670000D03*
X143346000Y-91170000D03*
X143346000Y-90670000D03*
X143346000Y-90170000D03*
X143346000Y-89670000D03*
X143346000Y-89170000D03*
X143346000Y-88670000D03*
D28*
X144296000Y-87720000D03*
X144796000Y-87720000D03*
X145296000Y-87720000D03*
X145796000Y-87720000D03*
X146296000Y-87720000D03*
X146796000Y-87720000D03*
X147296000Y-87720000D03*
D27*
X148246000Y-88670000D03*
X148246000Y-89170000D03*
X148246000Y-89670000D03*
X148246000Y-90170000D03*
X148246000Y-90670000D03*
X148246000Y-91170000D03*
X148246000Y-91670000D03*
D28*
X147296000Y-92620000D03*
X146796000Y-92620000D03*
X146296000Y-92620000D03*
X145796000Y-92620000D03*
X145296000Y-92620000D03*
X144796000Y-92620000D03*
X144296000Y-92620000D03*
%TD*%
D19*
%TO.C,R2*%
X134400000Y-94400000D03*
X132400000Y-94400000D03*
%TD*%
D29*
%TO.C,C4*%
X123900000Y-83837500D03*
X123900000Y-81762500D03*
%TD*%
%TO.C,C3*%
X121600000Y-83837500D03*
X121600000Y-81762500D03*
%TD*%
D30*
%TO.C,Q2*%
X140550000Y-103500000D03*
X138650000Y-103500000D03*
X139600000Y-106500000D03*
%TD*%
D31*
%TO.C,C5*%
X132609500Y-106933500D03*
X130534500Y-106933500D03*
%TD*%
D32*
%TO.C,R5*%
X139000000Y-98000000D03*
X139000000Y-100000000D03*
%TD*%
D33*
%TO.C,D3*%
X153800000Y-84328000D03*
X151750000Y-84328000D03*
%TD*%
D34*
%TO.C,PB1*%
X124000000Y-106100000D03*
X124000000Y-99100000D03*
%TD*%
D19*
%TO.C,R1*%
X133400000Y-96600000D03*
X131400000Y-96600000D03*
%TD*%
D30*
%TO.C,Q1*%
X141050000Y-100500000D03*
X142950000Y-100500000D03*
X142000000Y-97500000D03*
%TD*%
D35*
%TO.C,R3*%
X145933000Y-81788000D03*
X147933000Y-81788000D03*
%TD*%
D36*
%TO.C,X2*%
X130604000Y-113150000D03*
D37*
X132604000Y-113150000D03*
X134604000Y-113150000D03*
X136604000Y-113150000D03*
%TD*%
D33*
%TO.C,D2*%
X153800000Y-81788000D03*
X151750000Y-81788000D03*
%TD*%
D38*
%TO.C,R6*%
X142600000Y-106000000D03*
X142600000Y-104000000D03*
%TD*%
D39*
%TO.C,U4*%
X149500000Y-114910000D03*
D40*
X151800000Y-108610000D03*
D39*
X151800000Y-114910000D03*
X154100000Y-114910000D03*
%TD*%
D32*
%TO.C,R7*%
X122400000Y-89000000D03*
X122400000Y-91000000D03*
%TD*%
D29*
%TO.C,C1*%
X158242000Y-112797500D03*
X158242000Y-110722500D03*
%TD*%
D19*
%TO.C,R9*%
X153800000Y-91600000D03*
X151800000Y-91600000D03*
%TD*%
D41*
%TO.C,U2*%
X132350000Y-100837500D03*
X131850000Y-100837500D03*
X131350000Y-100837500D03*
X130850000Y-100837500D03*
D42*
X130837500Y-101350000D03*
X130837500Y-101850000D03*
D41*
X130850000Y-102362500D03*
X131350000Y-102362500D03*
X131850000Y-102362500D03*
X132350000Y-102362500D03*
D42*
X132362500Y-101850000D03*
X132362500Y-101350000D03*
%TD*%
D31*
%TO.C,C7*%
X132609500Y-104647500D03*
X130534500Y-104647500D03*
%TD*%
D19*
%TO.C,R4*%
X133400000Y-98800000D03*
X131400000Y-98800000D03*
%TD*%
D35*
%TO.C,R11*%
X151800000Y-89200000D03*
X153800000Y-89200000D03*
%TD*%
%TO.C,R12*%
X145933000Y-84328000D03*
X147933000Y-84328000D03*
%TD*%
D43*
%TO.C,C2*%
X144780000Y-111992000D03*
X144780000Y-115592000D03*
%TD*%
D38*
%TO.C,R8*%
X158600000Y-92200000D03*
X158600000Y-90200000D03*
%TD*%
D17*
%TO.C,C8*%
X148362500Y-94400000D03*
X150437500Y-94400000D03*
%TD*%
M02*
