%TF.GenerationSoftware,KiCad,Pcbnew,(6.0.1-0)*%
%TF.CreationDate,2022-02-13T16:39:06+01:00*%
%TF.ProjectId,NightLight,4e696768-744c-4696-9768-742e6b696361,rev?*%
%TF.SameCoordinates,Original*%
%TF.FileFunction,Copper,L1,Top*%
%TF.FilePolarity,Positive*%
%FSLAX46Y46*%
G04 Gerber Fmt 4.6, Leading zero omitted, Abs format (unit mm)*
G04 Created by KiCad (PCBNEW (6.0.1-0)) date 2022-02-13 16:39:06*
%MOMM*%
%LPD*%
G01*
G04 APERTURE LIST*
G04 Aperture macros list*
%AMRoundRect*
0 Rectangle with rounded corners*
0 $1 Rounding radius*
0 $2 $3 $4 $5 $6 $7 $8 $9 X,Y pos of 4 corners*
0 Add a 4 corners polygon primitive as box body*
4,1,4,$2,$3,$4,$5,$6,$7,$8,$9,$2,$3,0*
0 Add four circle primitives for the rounded corners*
1,1,$1+$1,$2,$3*
1,1,$1+$1,$4,$5*
1,1,$1+$1,$6,$7*
1,1,$1+$1,$8,$9*
0 Add four rect primitives between the rounded corners*
20,1,$1+$1,$2,$3,$4,$5,0*
20,1,$1+$1,$4,$5,$6,$7,0*
20,1,$1+$1,$6,$7,$8,$9,0*
20,1,$1+$1,$8,$9,$2,$3,0*%
%AMOutline5P*
0 Free polygon, 5 corners , with rotation*
0 The origin of the aperture is its center*
0 number of corners: always 5*
0 $1 to $10 corner X, Y*
0 $11 Rotation angle, in degrees counterclockwise*
0 create outline with 5 corners*
4,1,5,$1,$2,$3,$4,$5,$6,$7,$8,$9,$10,$1,$2,$11*%
%AMOutline6P*
0 Free polygon, 6 corners , with rotation*
0 The origin of the aperture is its center*
0 number of corners: always 6*
0 $1 to $12 corner X, Y*
0 $13 Rotation angle, in degrees counterclockwise*
0 create outline with 6 corners*
4,1,6,$1,$2,$3,$4,$5,$6,$7,$8,$9,$10,$11,$12,$1,$2,$13*%
%AMOutline7P*
0 Free polygon, 7 corners , with rotation*
0 The origin of the aperture is its center*
0 number of corners: always 7*
0 $1 to $14 corner X, Y*
0 $15 Rotation angle, in degrees counterclockwise*
0 create outline with 7 corners*
4,1,7,$1,$2,$3,$4,$5,$6,$7,$8,$9,$10,$11,$12,$13,$14,$1,$2,$15*%
%AMOutline8P*
0 Free polygon, 8 corners , with rotation*
0 The origin of the aperture is its center*
0 number of corners: always 8*
0 $1 to $16 corner X, Y*
0 $17 Rotation angle, in degrees counterclockwise*
0 create outline with 8 corners*
4,1,8,$1,$2,$3,$4,$5,$6,$7,$8,$9,$10,$11,$12,$13,$14,$15,$16,$1,$2,$17*%
G04 Aperture macros list end*
%TA.AperFunction,SMDPad,CuDef*%
%ADD10R,1.350000X0.400000*%
%TD*%
%TA.AperFunction,SMDPad,CuDef*%
%ADD11R,1.900000X1.900000*%
%TD*%
%TA.AperFunction,SMDPad,CuDef*%
%ADD12RoundRect,0.250000X-0.337500X-0.475000X0.337500X-0.475000X0.337500X0.475000X-0.337500X0.475000X0*%
%TD*%
%TA.AperFunction,SMDPad,CuDef*%
%ADD13RoundRect,0.250000X-0.475000X0.337500X-0.475000X-0.337500X0.475000X-0.337500X0.475000X0.337500X0*%
%TD*%
%TA.AperFunction,SMDPad,CuDef*%
%ADD14RoundRect,0.250000X0.350000X0.450000X-0.350000X0.450000X-0.350000X-0.450000X0.350000X-0.450000X0*%
%TD*%
%TA.AperFunction,SMDPad,CuDef*%
%ADD15R,0.700000X0.700000*%
%TD*%
%TA.AperFunction,SMDPad,CuDef*%
%ADD16R,1.450000X1.450000*%
%TD*%
%TA.AperFunction,SMDPad,CuDef*%
%ADD17Outline5P,-0.725000X0.725000X0.725000X0.725000X0.725000X-0.217500X0.217500X-0.725000X-0.725000X-0.725000X180.000000*%
%TD*%
%TA.AperFunction,SMDPad,CuDef*%
%ADD18R,0.400000X0.800000*%
%TD*%
%TA.AperFunction,SMDPad,CuDef*%
%ADD19R,0.800000X0.400000*%
%TD*%
%TA.AperFunction,SMDPad,CuDef*%
%ADD20RoundRect,0.150000X-0.150000X0.512500X-0.150000X-0.512500X0.150000X-0.512500X0.150000X0.512500X0*%
%TD*%
%TA.AperFunction,SMDPad,CuDef*%
%ADD21R,3.350000X3.350000*%
%TD*%
%TA.AperFunction,SMDPad,CuDef*%
%ADD22RoundRect,0.062500X0.337500X-0.062500X0.337500X0.062500X-0.337500X0.062500X-0.337500X-0.062500X0*%
%TD*%
%TA.AperFunction,SMDPad,CuDef*%
%ADD23RoundRect,0.062500X0.062500X-0.337500X0.062500X0.337500X-0.062500X0.337500X-0.062500X-0.337500X0*%
%TD*%
%TA.AperFunction,SMDPad,CuDef*%
%ADD24RoundRect,0.250000X0.475000X-0.337500X0.475000X0.337500X-0.475000X0.337500X-0.475000X-0.337500X0*%
%TD*%
%TA.AperFunction,SMDPad,CuDef*%
%ADD25R,0.800000X1.900000*%
%TD*%
%TA.AperFunction,SMDPad,CuDef*%
%ADD26RoundRect,0.250000X0.337500X0.475000X-0.337500X0.475000X-0.337500X-0.475000X0.337500X-0.475000X0*%
%TD*%
%TA.AperFunction,SMDPad,CuDef*%
%ADD27RoundRect,0.250000X-0.450000X0.350000X-0.450000X-0.350000X0.450000X-0.350000X0.450000X0.350000X0*%
%TD*%
%TA.AperFunction,SMDPad,CuDef*%
%ADD28RoundRect,0.250000X0.325000X0.450000X-0.325000X0.450000X-0.325000X-0.450000X0.325000X-0.450000X0*%
%TD*%
%TA.AperFunction,SMDPad,CuDef*%
%ADD29R,1.400000X1.000000*%
%TD*%
%TA.AperFunction,SMDPad,CuDef*%
%ADD30RoundRect,0.250000X-0.350000X-0.450000X0.350000X-0.450000X0.350000X0.450000X-0.350000X0.450000X0*%
%TD*%
%TA.AperFunction,ComponentPad*%
%ADD31RoundRect,0.250000X-0.350000X-0.625000X0.350000X-0.625000X0.350000X0.625000X-0.350000X0.625000X0*%
%TD*%
%TA.AperFunction,ComponentPad*%
%ADD32O,1.200000X1.750000*%
%TD*%
%TA.AperFunction,SMDPad,CuDef*%
%ADD33RoundRect,0.250000X0.450000X-0.350000X0.450000X0.350000X-0.450000X0.350000X-0.450000X-0.350000X0*%
%TD*%
%TA.AperFunction,SMDPad,CuDef*%
%ADD34R,1.500000X2.000000*%
%TD*%
%TA.AperFunction,SMDPad,CuDef*%
%ADD35R,3.800000X2.000000*%
%TD*%
%TA.AperFunction,SMDPad,CuDef*%
%ADD36R,0.350000X0.375000*%
%TD*%
%TA.AperFunction,SMDPad,CuDef*%
%ADD37R,0.375000X0.350000*%
%TD*%
%TA.AperFunction,SMDPad,CuDef*%
%ADD38RoundRect,0.250000X-0.550000X1.050000X-0.550000X-1.050000X0.550000X-1.050000X0.550000X1.050000X0*%
%TD*%
%TA.AperFunction,ViaPad*%
%ADD39C,0.800000*%
%TD*%
%TA.AperFunction,ViaPad*%
%ADD40C,0.600000*%
%TD*%
%TA.AperFunction,Conductor*%
%ADD41C,0.250000*%
%TD*%
%TA.AperFunction,Conductor*%
%ADD42C,0.200000*%
%TD*%
%TA.AperFunction,Conductor*%
%ADD43C,0.500000*%
%TD*%
%TA.AperFunction,Conductor*%
%ADD44C,1.000000*%
%TD*%
G04 APERTURE END LIST*
D10*
%TO.P,X1,1,VBUS*%
%TO.N,VBUS*%
X155937500Y-101300000D03*
%TO.P,X1,2,D-*%
%TO.N,Net-(D1-Pad3)*%
X155937500Y-100650000D03*
%TO.P,X1,3,D+*%
%TO.N,Net-(D1-Pad1)*%
X155937500Y-100000000D03*
%TO.P,X1,4,ID*%
%TO.N,unconnected-(X1-Pad4)*%
X155937500Y-99350000D03*
%TO.P,X1,5,GND*%
%TO.N,GND*%
X155937500Y-98700000D03*
D11*
%TO.P,X1,6,Shield*%
%TO.N,Net-(R8-Pad1)*%
X158612500Y-98800000D03*
X158612500Y-96050000D03*
X158612500Y-101200000D03*
X158612500Y-103950000D03*
%TD*%
D12*
%TO.P,C9,1*%
%TO.N,+3V3*%
X148362500Y-96800000D03*
%TO.P,C9,2*%
%TO.N,GND*%
X150437500Y-96800000D03*
%TD*%
D13*
%TO.P,C6,1*%
%TO.N,/RESET*%
X122400000Y-93162500D03*
%TO.P,C6,2*%
%TO.N,GND*%
X122400000Y-95237500D03*
%TD*%
D14*
%TO.P,R10,1*%
%TO.N,+3V3*%
X153800000Y-86800000D03*
%TO.P,R10,2*%
%TO.N,Net-(R10-Pad2)*%
X151800000Y-86800000D03*
%TD*%
D15*
%TO.P,U1,53,GND53*%
%TO.N,GND*%
X126130000Y-81000000D03*
%TO.P,U1,52,GND52*%
X126130000Y-90900000D03*
%TO.P,U1,51,GND51*%
X138030000Y-90900000D03*
%TO.P,U1,50,GND50*%
X138030000Y-81000000D03*
D16*
%TO.P,U1,49,GND_PAD*%
X132080000Y-85950000D03*
X134055000Y-83975000D03*
X132080000Y-87925000D03*
X134055000Y-85950000D03*
X130105000Y-85950000D03*
X134055000Y-87925000D03*
X132080000Y-83975000D03*
X130105000Y-87925000D03*
D17*
X130130000Y-83975000D03*
D18*
%TO.P,U1,48,GND48*%
X127280000Y-81050000D03*
%TO.P,U1,47,GND47*%
X128080000Y-81050000D03*
%TO.P,U1,46,GND46*%
X128880000Y-81050000D03*
%TO.P,U1,45,GND45*%
X129680000Y-81050000D03*
%TO.P,U1,44,GND44*%
X130480000Y-81050000D03*
%TO.P,U1,43,GND43*%
X131280000Y-81050000D03*
%TO.P,U1,42,GND42*%
X132080000Y-81050000D03*
%TO.P,U1,41,GND41*%
X132880000Y-81050000D03*
%TO.P,U1,40,GND40*%
X133680000Y-81050000D03*
%TO.P,U1,39,GND39*%
X134480000Y-81050000D03*
%TO.P,U1,38,GND38*%
X135280000Y-81050000D03*
%TO.P,U1,37,GND37*%
X136080000Y-81050000D03*
%TO.P,U1,36,GND36*%
X136880000Y-81050000D03*
X136880000Y-81050000D03*
D19*
%TO.P,U1,35,NC35*%
%TO.N,unconnected-(U1-Pad35)*%
X137980000Y-82000000D03*
%TO.P,U1,34,NC34*%
%TO.N,unconnected-(U1-Pad34)*%
X137980000Y-82750000D03*
%TO.P,U1,33,NC33*%
%TO.N,unconnected-(U1-Pad33)*%
X137980000Y-83550000D03*
%TO.P,U1,32,NC32*%
%TO.N,unconnected-(U1-Pad32)*%
X137980000Y-84350000D03*
%TO.P,U1,31,TXD0*%
%TO.N,/TXD0*%
X137980000Y-85150000D03*
%TO.P,U1,30,RXD0*%
%TO.N,/RXD0*%
X137980000Y-85950000D03*
%TO.P,U1,29,NC29*%
%TO.N,unconnected-(U1-Pad29)*%
X137980000Y-86750000D03*
%TO.P,U1,28,NC28*%
%TO.N,unconnected-(U1-Pad28)*%
X137980000Y-87550000D03*
%TO.P,U1,27,IO19*%
%TO.N,unconnected-(U1-Pad27)*%
X137980000Y-88350000D03*
%TO.P,U1,26,IO18*%
%TO.N,unconnected-(U1-Pad26)*%
X137980000Y-89150000D03*
%TO.P,U1,25,NC25*%
%TO.N,unconnected-(U1-Pad25)*%
X137980000Y-89950000D03*
D18*
%TO.P,U1,24,NC24*%
%TO.N,unconnected-(U1-Pad24)*%
X136880000Y-90850000D03*
%TO.P,U1,23,IO9*%
%TO.N,unconnected-(U1-Pad23)*%
X136080000Y-90850000D03*
%TO.P,U1,22,IO8*%
%TO.N,unconnected-(U1-Pad22)*%
X135280000Y-90850000D03*
%TO.P,U1,21,IO7*%
%TO.N,/LEDD*%
X134480000Y-90850000D03*
%TO.P,U1,20,IO6*%
%TO.N,/LEDC*%
X133680000Y-90850000D03*
%TO.P,U1,19,IO5*%
%TO.N,/SDC*%
X132880000Y-90850000D03*
%TO.P,U1,18,IO4*%
%TO.N,/SDA*%
X132080000Y-90850000D03*
%TO.P,U1,17,NC17*%
%TO.N,unconnected-(U1-Pad17)*%
X131280000Y-90850000D03*
%TO.P,U1,16,IO10*%
%TO.N,unconnected-(U1-Pad16)*%
X130480000Y-90850000D03*
%TO.P,U1,15,NC15*%
%TO.N,unconnected-(U1-Pad15)*%
X129680000Y-90850000D03*
%TO.P,U1,14,GND14*%
%TO.N,GND*%
X128880000Y-90850000D03*
%TO.P,U1,13,IO1*%
%TO.N,/INT2*%
X128080000Y-90850000D03*
%TO.P,U1,12,IO0*%
%TO.N,/INT1*%
X127280000Y-90850000D03*
D19*
%TO.P,U1,11,GND11*%
%TO.N,GND*%
X126180000Y-89900000D03*
%TO.P,U1,10,NC10*%
%TO.N,unconnected-(U1-Pad10)*%
X126180000Y-89150000D03*
%TO.P,U1,9,NC9*%
%TO.N,unconnected-(U1-Pad9)*%
X126180000Y-88350000D03*
%TO.P,U1,8,EN*%
%TO.N,/RESET*%
X126180000Y-87550000D03*
%TO.P,U1,7,NC7*%
%TO.N,unconnected-(U1-Pad7)*%
X126180000Y-86750000D03*
%TO.P,U1,6,IO3*%
%TO.N,unconnected-(U1-Pad6)*%
X126180000Y-85950000D03*
%TO.P,U1,5,IO2*%
%TO.N,/GPIO2*%
X126180000Y-85150000D03*
%TO.P,U1,4,NC4*%
%TO.N,unconnected-(U1-Pad4)*%
X126180000Y-84350000D03*
%TO.P,U1,3,3V3*%
%TO.N,+3V3*%
X126180000Y-83550000D03*
%TO.P,U1,2,GND2*%
%TO.N,GND*%
X126180000Y-82750000D03*
%TO.P,U1,1,GND1*%
X126180000Y-81950000D03*
%TD*%
D20*
%TO.P,D1,1,K*%
%TO.N,Net-(D1-Pad1)*%
X151572000Y-99446500D03*
%TO.P,D1,2,A*%
%TO.N,GND*%
X150622000Y-99446500D03*
%TO.P,D1,3,K*%
%TO.N,Net-(D1-Pad3)*%
X149672000Y-99446500D03*
%TO.P,D1,4,K*%
%TO.N,unconnected-(D1-Pad4)*%
X149672000Y-101721500D03*
%TO.P,D1,5,K*%
%TO.N,VBUS*%
X151572000Y-101721500D03*
%TD*%
D21*
%TO.P,U3,29,GND*%
%TO.N,GND*%
X145796000Y-90170000D03*
D22*
%TO.P,U3,28,~{DTR}*%
%TO.N,/DTR*%
X143346000Y-91670000D03*
%TO.P,U3,27,~{DSR}*%
%TO.N,unconnected-(U3-Pad27)*%
X143346000Y-91170000D03*
%TO.P,U3,26,TXD*%
%TO.N,/RXD0*%
X143346000Y-90670000D03*
%TO.P,U3,25,RXD*%
%TO.N,/TXD0*%
X143346000Y-90170000D03*
%TO.P,U3,24,~{RTS}*%
%TO.N,/RTS*%
X143346000Y-89670000D03*
%TO.P,U3,23,~{CTS}*%
%TO.N,unconnected-(U3-Pad23)*%
X143346000Y-89170000D03*
%TO.P,U3,22,GPIO.4*%
%TO.N,unconnected-(U3-Pad22)*%
X143346000Y-88670000D03*
D23*
%TO.P,U3,21,GPIO.5*%
%TO.N,unconnected-(U3-Pad21)*%
X144296000Y-87720000D03*
%TO.P,U3,20,GPIO.6*%
%TO.N,unconnected-(U3-Pad20)*%
X144796000Y-87720000D03*
%TO.P,U3,19,~{TXT}/GPIO.0*%
%TO.N,unconnected-(U3-Pad19)*%
X145296000Y-87720000D03*
%TO.P,U3,18,~{RXT}/GPIO.1*%
%TO.N,unconnected-(U3-Pad18)*%
X145796000Y-87720000D03*
%TO.P,U3,17,RS485/GPIO.2*%
%TO.N,unconnected-(U3-Pad17)*%
X146296000Y-87720000D03*
%TO.P,U3,16,~{WAKEUP}/GPIO.3*%
%TO.N,unconnected-(U3-Pad16)*%
X146796000Y-87720000D03*
%TO.P,U3,15,CHR0*%
%TO.N,unconnected-(U3-Pad15)*%
X147296000Y-87720000D03*
D22*
%TO.P,U3,14,CHR1*%
%TO.N,unconnected-(U3-Pad14)*%
X148246000Y-88670000D03*
%TO.P,U3,13,CHREN*%
%TO.N,unconnected-(U3-Pad13)*%
X148246000Y-89170000D03*
%TO.P,U3,12,SUSPEND*%
%TO.N,unconnected-(U3-Pad12)*%
X148246000Y-89670000D03*
%TO.P,U3,11,~{SUSPEND}*%
%TO.N,Net-(R12-Pad1)*%
X148246000Y-90170000D03*
%TO.P,U3,10,NC*%
%TO.N,unconnected-(U3-Pad10)*%
X148246000Y-90670000D03*
%TO.P,U3,9,~{RST}*%
%TO.N,Net-(R10-Pad2)*%
X148246000Y-91170000D03*
%TO.P,U3,8,VBUS*%
%TO.N,Net-(R11-Pad1)*%
X148246000Y-91670000D03*
D23*
%TO.P,U3,7,VREGIN*%
%TO.N,+3V3*%
X147296000Y-92620000D03*
%TO.P,U3,6,VDD*%
X146796000Y-92620000D03*
%TO.P,U3,5,D-*%
%TO.N,Net-(D1-Pad1)*%
X146296000Y-92620000D03*
%TO.P,U3,4,D+*%
%TO.N,Net-(D1-Pad3)*%
X145796000Y-92620000D03*
%TO.P,U3,3,GND*%
%TO.N,GND*%
X145296000Y-92620000D03*
%TO.P,U3,2,~{RI}/CLK*%
%TO.N,unconnected-(U3-Pad2)*%
X144796000Y-92620000D03*
%TO.P,U3,1,~{DCD}*%
%TO.N,unconnected-(U3-Pad1)*%
X144296000Y-92620000D03*
%TD*%
D14*
%TO.P,R2,1*%
%TO.N,+3V3*%
X134400000Y-94400000D03*
%TO.P,R2,2*%
%TO.N,/SDC*%
X132400000Y-94400000D03*
%TD*%
D24*
%TO.P,C4,1*%
%TO.N,+3V3*%
X123900000Y-83837500D03*
%TO.P,C4,2*%
%TO.N,GND*%
X123900000Y-81762500D03*
%TD*%
%TO.P,C3,1*%
%TO.N,+3V3*%
X121600000Y-83837500D03*
%TO.P,C3,2*%
%TO.N,GND*%
X121600000Y-81762500D03*
%TD*%
D25*
%TO.P,Q2,1,B*%
%TO.N,Net-(Q2-Pad1)*%
X140550000Y-103500000D03*
%TO.P,Q2,2,E*%
%TO.N,/RTS*%
X138650000Y-103500000D03*
%TO.P,Q2,3,C*%
%TO.N,/RESET*%
X139600000Y-106500000D03*
%TD*%
D26*
%TO.P,C5,1*%
%TO.N,+3V3*%
X132609500Y-106933500D03*
%TO.P,C5,2*%
%TO.N,GND*%
X130534500Y-106933500D03*
%TD*%
D27*
%TO.P,R5,1*%
%TO.N,Net-(Q1-Pad1)*%
X139000000Y-98000000D03*
%TO.P,R5,2*%
%TO.N,/RTS*%
X139000000Y-100000000D03*
%TD*%
D28*
%TO.P,D3,1,K*%
%TO.N,GND*%
X153800000Y-84328000D03*
%TO.P,D3,2,A*%
%TO.N,Net-(D3-Pad2)*%
X151750000Y-84328000D03*
%TD*%
D29*
%TO.P,PB1,1,1*%
%TO.N,GND*%
X124000000Y-106100000D03*
%TO.P,PB1,2,2*%
%TO.N,/RESET*%
X124000000Y-99100000D03*
%TD*%
D14*
%TO.P,R1,1*%
%TO.N,+3V3*%
X133400000Y-96600000D03*
%TO.P,R1,2*%
%TO.N,/SDA*%
X131400000Y-96600000D03*
%TD*%
D25*
%TO.P,Q1,1,B*%
%TO.N,Net-(Q1-Pad1)*%
X141050000Y-100500000D03*
%TO.P,Q1,2,E*%
%TO.N,/DTR*%
X142950000Y-100500000D03*
%TO.P,Q1,3,C*%
%TO.N,/GPIO2*%
X142000000Y-97500000D03*
%TD*%
D30*
%TO.P,R3,1*%
%TO.N,+3V3*%
X145933000Y-81788000D03*
%TO.P,R3,2*%
%TO.N,Net-(D2-Pad2)*%
X147933000Y-81788000D03*
%TD*%
D31*
%TO.P,X2,1,Pin_1*%
%TO.N,VBUS*%
X130604000Y-113150000D03*
D32*
%TO.P,X2,2,Pin_2*%
%TO.N,/LEDC*%
X132604000Y-113150000D03*
%TO.P,X2,3,Pin_3*%
%TO.N,/LEDD*%
X134604000Y-113150000D03*
%TO.P,X2,4,Pin_4*%
%TO.N,GND*%
X136604000Y-113150000D03*
%TD*%
D28*
%TO.P,D2,1,K*%
%TO.N,GND*%
X153800000Y-81788000D03*
%TO.P,D2,2,A*%
%TO.N,Net-(D2-Pad2)*%
X151750000Y-81788000D03*
%TD*%
D33*
%TO.P,R6,1*%
%TO.N,Net-(Q2-Pad1)*%
X142600000Y-106000000D03*
%TO.P,R6,2*%
%TO.N,/DTR*%
X142600000Y-104000000D03*
%TD*%
D34*
%TO.P,U4,1,GND*%
%TO.N,GND*%
X149500000Y-114910000D03*
D35*
%TO.P,U4,2,VO*%
%TO.N,+3V3*%
X151800000Y-108610000D03*
D34*
X151800000Y-114910000D03*
%TO.P,U4,3,VI*%
%TO.N,VBUS*%
X154100000Y-114910000D03*
%TD*%
D27*
%TO.P,R7,1*%
%TO.N,+3V3*%
X122400000Y-89000000D03*
%TO.P,R7,2*%
%TO.N,/RESET*%
X122400000Y-91000000D03*
%TD*%
D24*
%TO.P,C1,1*%
%TO.N,VBUS*%
X158242000Y-112797500D03*
%TO.P,C1,2*%
%TO.N,GND*%
X158242000Y-110722500D03*
%TD*%
D14*
%TO.P,R9,1*%
%TO.N,VBUS*%
X153800000Y-91600000D03*
%TO.P,R9,2*%
%TO.N,Net-(R11-Pad1)*%
X151800000Y-91600000D03*
%TD*%
D36*
%TO.P,U2,1,SCL/SPC*%
%TO.N,/SDC*%
X132350000Y-100837500D03*
%TO.P,U2,2,~{CS}*%
%TO.N,Net-(R4-Pad2)*%
X131850000Y-100837500D03*
%TO.P,U2,3,SA0/SDO*%
%TO.N,unconnected-(U2-Pad3)*%
X131350000Y-100837500D03*
%TO.P,U2,4,SDA/SDI*%
%TO.N,/SDA*%
X130850000Y-100837500D03*
D37*
%TO.P,U2,5,RES*%
%TO.N,GND*%
X130837500Y-101350000D03*
%TO.P,U2,6,GND*%
X130837500Y-101850000D03*
D36*
%TO.P,U2,7,GND*%
X130850000Y-102362500D03*
%TO.P,U2,8,GND*%
X131350000Y-102362500D03*
%TO.P,U2,9,Vdd*%
%TO.N,+3V3*%
X131850000Y-102362500D03*
%TO.P,U2,10,Vdd_IO*%
X132350000Y-102362500D03*
D37*
%TO.P,U2,11,INT2*%
%TO.N,/INT2*%
X132362500Y-101850000D03*
%TO.P,U2,12,INT1*%
%TO.N,/INT1*%
X132362500Y-101350000D03*
%TD*%
D26*
%TO.P,C7,1*%
%TO.N,+3V3*%
X132609500Y-104647500D03*
%TO.P,C7,2*%
%TO.N,GND*%
X130534500Y-104647500D03*
%TD*%
D14*
%TO.P,R4,1*%
%TO.N,+3V3*%
X133400000Y-98800000D03*
%TO.P,R4,2*%
%TO.N,Net-(R4-Pad2)*%
X131400000Y-98800000D03*
%TD*%
D30*
%TO.P,R11,1*%
%TO.N,Net-(R11-Pad1)*%
X151800000Y-89200000D03*
%TO.P,R11,2*%
%TO.N,GND*%
X153800000Y-89200000D03*
%TD*%
%TO.P,R12,1*%
%TO.N,Net-(R12-Pad1)*%
X145933000Y-84328000D03*
%TO.P,R12,2*%
%TO.N,Net-(D3-Pad2)*%
X147933000Y-84328000D03*
%TD*%
D38*
%TO.P,C2,1*%
%TO.N,+3V3*%
X144780000Y-111992000D03*
%TO.P,C2,2*%
%TO.N,GND*%
X144780000Y-115592000D03*
%TD*%
D33*
%TO.P,R8,1*%
%TO.N,Net-(R8-Pad1)*%
X158600000Y-92200000D03*
%TO.P,R8,2*%
%TO.N,GND*%
X158600000Y-90200000D03*
%TD*%
D12*
%TO.P,C8,1*%
%TO.N,+3V3*%
X148362500Y-94400000D03*
%TO.P,C8,2*%
%TO.N,GND*%
X150437500Y-94400000D03*
%TD*%
D39*
%TO.N,GND*%
X122400000Y-96400000D03*
X151600000Y-94400000D03*
X132050000Y-83975000D03*
X124000000Y-104800000D03*
X150600000Y-99400000D03*
X151600000Y-96800000D03*
X134055000Y-83975000D03*
X158200000Y-109200000D03*
X145071500Y-93600000D03*
X130130000Y-83975000D03*
X132100000Y-85948000D03*
X144800000Y-115600000D03*
X154800000Y-90200000D03*
X125200000Y-82000000D03*
X134055000Y-87898000D03*
X130534500Y-103200000D03*
X132100000Y-87925000D03*
X153791000Y-83000000D03*
X134055000Y-86043000D03*
X149400000Y-115000000D03*
X158600000Y-89000000D03*
X130105000Y-87925000D03*
X154686000Y-98806000D03*
X130100000Y-85950000D03*
D40*
%TO.N,+3V3*%
X148200000Y-110800000D03*
X148200000Y-108000000D03*
X150000000Y-110000000D03*
X153800000Y-111400000D03*
X153800000Y-110000000D03*
X153800000Y-108600000D03*
X155400000Y-106600000D03*
D39*
X148400000Y-96800000D03*
D40*
X150000000Y-107200000D03*
X151800000Y-112200000D03*
X151800000Y-110800000D03*
X153800000Y-107200000D03*
X148200000Y-112200000D03*
X150000000Y-111400000D03*
X148200000Y-106600000D03*
X151800000Y-106600000D03*
X151800000Y-109400000D03*
X151800000Y-108000000D03*
X155400000Y-112200000D03*
X150000000Y-108600000D03*
X155400000Y-109400000D03*
X155400000Y-110800000D03*
X155400000Y-108000000D03*
D39*
X146400000Y-98800000D03*
D40*
X148200000Y-109400000D03*
D39*
%TO.N,/RESET*%
X129200000Y-106600000D03*
X137200000Y-106600000D03*
%TO.N,/GPIO2*%
X124200000Y-90000000D03*
X139409299Y-93009299D03*
%TO.N,/RTS*%
X140838701Y-90555299D03*
X142181158Y-89212842D03*
%TO.N,/INT1*%
X133345701Y-100200000D03*
X129450000Y-95450000D03*
%TO.N,/LEDC*%
X134400000Y-109600000D03*
%TO.N,/LEDD*%
X136400000Y-109600000D03*
%TO.N,/INT2*%
X133691500Y-101400000D03*
X130426944Y-95473056D03*
%TD*%
D41*
%TO.N,/INT1*%
X129450000Y-95450000D02*
X127280000Y-93280000D01*
X127280000Y-93280000D02*
X127280000Y-90850000D01*
%TO.N,/INT2*%
X130426944Y-95473056D02*
X128080000Y-93126112D01*
X128080000Y-93126112D02*
X128080000Y-90850000D01*
%TO.N,GND*%
X154800000Y-90200000D02*
X153800000Y-89200000D01*
X128880000Y-90000000D02*
X128880000Y-90850000D01*
D42*
X137900000Y-90900000D02*
X136875000Y-89875000D01*
D41*
X128580000Y-89900000D02*
X136850000Y-89900000D01*
D42*
X138030000Y-90900000D02*
X137900000Y-90900000D01*
D43*
%TO.N,VBUS*%
X130604000Y-113150000D02*
X130604000Y-115404000D01*
X130604000Y-115404000D02*
X133200000Y-118000000D01*
X133200000Y-118000000D02*
X152800000Y-118000000D01*
X152800000Y-118000000D02*
X154000000Y-116800000D01*
X154000000Y-116800000D02*
X154000000Y-115010000D01*
X154000000Y-115010000D02*
X154010000Y-115000000D01*
X154010000Y-115000000D02*
X156200000Y-115000000D01*
X156200000Y-115000000D02*
X156800000Y-114400000D01*
X156800000Y-114400000D02*
X156800000Y-112797500D01*
X151572000Y-103172000D02*
X151572000Y-101721500D01*
D41*
X156075000Y-101300000D02*
X151658500Y-101300000D01*
X157000000Y-101300000D02*
X157226000Y-101074000D01*
D43*
X158242000Y-112797500D02*
X156800000Y-112797500D01*
X156800000Y-112797500D02*
X156800000Y-105400000D01*
X156800000Y-105400000D02*
X155600000Y-104200000D01*
X155600000Y-104200000D02*
X152600000Y-104200000D01*
D41*
X156075000Y-101300000D02*
X157000000Y-101300000D01*
X157226000Y-95026000D02*
X153800000Y-91600000D01*
X157226000Y-101074000D02*
X157226000Y-95026000D01*
D43*
X152600000Y-104200000D02*
X151572000Y-103172000D01*
D41*
%TO.N,GND*%
X126922500Y-81950000D02*
X127280000Y-81950000D01*
X127280000Y-89877500D02*
X127257500Y-89900000D01*
X130534500Y-104647500D02*
X130534500Y-103200000D01*
X128880000Y-81050000D02*
X128080000Y-81050000D01*
X129680000Y-81050000D02*
X128880000Y-81050000D01*
X130105000Y-85950000D02*
X130100000Y-85950000D01*
X126130000Y-89950000D02*
X126180000Y-89900000D01*
X130534500Y-103145000D02*
X130850000Y-102829500D01*
X126130000Y-90900000D02*
X126130000Y-89950000D01*
X130100000Y-85950000D02*
X132098000Y-85950000D01*
X126130000Y-81000000D02*
X127230000Y-81000000D01*
X127280000Y-85978000D02*
X127280000Y-89877500D01*
X130837500Y-102346500D02*
X130822000Y-102362000D01*
X145296000Y-92620000D02*
X145296000Y-90670000D01*
X158242000Y-109242000D02*
X158200000Y-109200000D01*
X122400000Y-96400000D02*
X122428000Y-96372000D01*
X158600000Y-90200000D02*
X158600000Y-89000000D01*
X132102000Y-85950000D02*
X134055000Y-85950000D01*
X126180000Y-89900000D02*
X127257500Y-89900000D01*
X132100000Y-87925000D02*
X134028000Y-87925000D01*
X126180000Y-81950000D02*
X126922500Y-81950000D01*
X125200000Y-82000000D02*
X124137500Y-82000000D01*
X128080000Y-81050000D02*
X127280000Y-81050000D01*
X144792000Y-115592000D02*
X144800000Y-115600000D01*
X130850000Y-102829500D02*
X130850000Y-102362500D01*
X129680000Y-81050000D02*
X130480000Y-81050000D01*
X130105000Y-84000000D02*
X130130000Y-83975000D01*
X130105000Y-87925000D02*
X132100000Y-87925000D01*
X145296000Y-90670000D02*
X145796000Y-90170000D01*
X144780000Y-115592000D02*
X144792000Y-115592000D01*
X124137500Y-82000000D02*
X123900000Y-81762500D01*
X149490000Y-114910000D02*
X149400000Y-115000000D01*
X153800000Y-83009000D02*
X153791000Y-83000000D01*
X145296000Y-93375500D02*
X145071500Y-93600000D01*
X127230000Y-81000000D02*
X127280000Y-81050000D01*
X158242000Y-110722500D02*
X158242000Y-109242000D01*
X150437500Y-94400000D02*
X151600000Y-94400000D01*
X130480000Y-81050000D02*
X136880000Y-81050000D01*
X130105000Y-87925000D02*
X130105000Y-84000000D01*
X153800000Y-84328000D02*
X153800000Y-83009000D01*
X126180000Y-81950000D02*
X126180000Y-82750000D01*
X153800000Y-82991000D02*
X153791000Y-83000000D01*
X136930000Y-81000000D02*
X136880000Y-81050000D01*
X134028000Y-87925000D02*
X134055000Y-87898000D01*
D43*
X121600000Y-81762500D02*
X123900000Y-81762500D01*
D41*
X150622000Y-99422000D02*
X150600000Y-99400000D01*
X130837500Y-101377500D02*
X130837500Y-102346500D01*
X130822000Y-102362000D02*
X131322000Y-102362000D01*
X127280000Y-81950000D02*
X127280000Y-85978000D01*
X150437500Y-96800000D02*
X151600000Y-96800000D01*
X138030000Y-81000000D02*
X136930000Y-81000000D01*
X130534500Y-104647500D02*
X130534500Y-106933500D01*
X127257500Y-89900000D02*
X128580000Y-89900000D01*
X124000000Y-106100000D02*
X124000000Y-104800000D01*
X130130000Y-83975000D02*
X132050000Y-83975000D01*
X127280000Y-81950000D02*
X127280000Y-81050000D01*
X134055000Y-83975000D02*
X134055000Y-86043000D01*
X154792000Y-98700000D02*
X154686000Y-98806000D01*
X132098000Y-85950000D02*
X132100000Y-85948000D01*
X132080000Y-87925000D02*
X132080000Y-83975000D01*
X125250000Y-81950000D02*
X126180000Y-81950000D01*
X130534500Y-103200000D02*
X130534500Y-103145000D01*
X122428000Y-96372000D02*
X122428000Y-95271500D01*
X132050000Y-83975000D02*
X134055000Y-83975000D01*
X145296000Y-92620000D02*
X145296000Y-93375500D01*
X156075000Y-98700000D02*
X154792000Y-98700000D01*
X150622000Y-99446500D02*
X150622000Y-99422000D01*
X149500000Y-114910000D02*
X149490000Y-114910000D01*
X134055000Y-86043000D02*
X134055000Y-87898000D01*
X125200000Y-82000000D02*
X125250000Y-81950000D01*
X132100000Y-85948000D02*
X132102000Y-85950000D01*
X153800000Y-81788000D02*
X153800000Y-82991000D01*
D43*
%TO.N,+3V3*%
X124800000Y-110600000D02*
X140400000Y-110600000D01*
X120904000Y-88138000D02*
X120904000Y-106680000D01*
X146400000Y-107600000D02*
X144780000Y-109220000D01*
D41*
X152800000Y-86800000D02*
X152800000Y-83800000D01*
X152067493Y-83058000D02*
X147203000Y-83058000D01*
D44*
X151800000Y-109000000D02*
X151800000Y-108610000D01*
D43*
X121600000Y-83837500D02*
X123900000Y-83837500D01*
D41*
X148362500Y-94400000D02*
X149762500Y-93000000D01*
X133334000Y-95250000D02*
X134350000Y-94234000D01*
D43*
X146400000Y-98800000D02*
X146400000Y-107600000D01*
X132609500Y-106933500D02*
X132609500Y-104647500D01*
D41*
X147620000Y-92620000D02*
X147296000Y-92620000D01*
D44*
X151800000Y-110000000D02*
X151800000Y-109000000D01*
X151800000Y-112000000D02*
X144788000Y-112000000D01*
D41*
X134366000Y-99838000D02*
X133334000Y-98806000D01*
D43*
X141792000Y-111992000D02*
X144780000Y-111992000D01*
D41*
X132609500Y-103145000D02*
X132609500Y-104647500D01*
X152775000Y-83765507D02*
X152067493Y-83058000D01*
X149762500Y-93000000D02*
X152000000Y-93000000D01*
X133334000Y-96520000D02*
X133334000Y-95250000D01*
X133334000Y-98806000D02*
X133334000Y-96520000D01*
X153800000Y-86800000D02*
X152800000Y-86800000D01*
X152800000Y-92200000D02*
X152800000Y-86800000D01*
D43*
X132609500Y-106933500D02*
X132609500Y-110600000D01*
D41*
X132350000Y-102885500D02*
X132609500Y-103145000D01*
X144788000Y-112000000D02*
X144780000Y-111992000D01*
D43*
X144780000Y-109220000D02*
X144780000Y-111992000D01*
D41*
X122428000Y-88916000D02*
X122428000Y-86772000D01*
D43*
X140400000Y-110600000D02*
X141792000Y-111992000D01*
D41*
X122428000Y-86772000D02*
X123900000Y-85300000D01*
X146796000Y-92620000D02*
X147296000Y-92620000D01*
X126180000Y-83550000D02*
X124187500Y-83550000D01*
X132350000Y-102362000D02*
X132350000Y-102885500D01*
D44*
X151800000Y-111000000D02*
X151800000Y-110000000D01*
D41*
X124187500Y-83550000D02*
X123900000Y-83837500D01*
D44*
X151800000Y-114910000D02*
X151800000Y-111000000D01*
D41*
X148400000Y-96800000D02*
X148400000Y-93400000D01*
D43*
X120904000Y-106680000D02*
X124824000Y-110600000D01*
D41*
X147203000Y-83058000D02*
X145933000Y-81788000D01*
D43*
X121666000Y-87376000D02*
X120904000Y-88138000D01*
D41*
X131822000Y-102362000D02*
X132350000Y-102362000D01*
X152000000Y-93000000D02*
X152800000Y-92200000D01*
D43*
X121666000Y-83566000D02*
X121666000Y-87376000D01*
D41*
X134366000Y-102891000D02*
X134366000Y-99838000D01*
X123900000Y-85300000D02*
X123900000Y-83837500D01*
X132609500Y-104647500D02*
X134366000Y-102891000D01*
X148400000Y-93400000D02*
X147620000Y-92620000D01*
%TO.N,/RESET*%
X122428000Y-90916000D02*
X122428000Y-93196500D01*
X122428000Y-93196500D02*
X124000000Y-94768500D01*
X125000011Y-90399989D02*
X124499986Y-90900014D01*
X137200000Y-106600000D02*
X139414000Y-106600000D01*
X125000011Y-87799989D02*
X125000011Y-90399989D01*
X126180000Y-87550000D02*
X125250000Y-87550000D01*
X124000000Y-101400000D02*
X129200000Y-106600000D01*
X122443986Y-90900014D02*
X122428000Y-90916000D01*
X139414000Y-106600000D02*
X139446000Y-106632000D01*
X124499986Y-90900014D02*
X122443986Y-90900014D01*
X124000000Y-94768500D02*
X124000000Y-101400000D01*
X125250000Y-87550000D02*
X125000011Y-87799989D01*
%TO.N,Net-(Q1-Pad1)*%
X139000000Y-98036000D02*
X141050000Y-100086000D01*
X141050000Y-100086000D02*
X141050000Y-100536000D01*
%TO.N,/DTR*%
X142950000Y-103954000D02*
X142950000Y-100536000D01*
X142950000Y-94250000D02*
X143346000Y-93854000D01*
X143346000Y-93854000D02*
X143346000Y-91670000D01*
X142950000Y-100536000D02*
X142950000Y-94250000D01*
X142748000Y-104156000D02*
X142950000Y-103954000D01*
%TO.N,/GPIO2*%
X125341000Y-85150000D02*
X124200000Y-86291000D01*
X126180000Y-85150000D02*
X125341000Y-85150000D01*
X124200000Y-86291000D02*
X124200000Y-90000000D01*
X142000000Y-95600000D02*
X139409299Y-93009299D01*
X142000000Y-97536000D02*
X142000000Y-95600000D01*
%TO.N,Net-(Q2-Pad1)*%
X140396000Y-103804000D02*
X142748000Y-106156000D01*
X140396000Y-103632000D02*
X140396000Y-103804000D01*
%TO.N,/RTS*%
X139000000Y-100000000D02*
X138650000Y-100350000D01*
X137975480Y-93418520D02*
X140838701Y-90555299D01*
X143346000Y-89670000D02*
X142638316Y-89670000D01*
X142638316Y-89670000D02*
X142181158Y-89212842D01*
X138964000Y-100000000D02*
X137975480Y-99011480D01*
X137975480Y-99011480D02*
X137975480Y-93418520D01*
X138650000Y-100350000D02*
X138650000Y-103500000D01*
X139000000Y-100000000D02*
X138964000Y-100000000D01*
D42*
%TO.N,/SDA*%
X132080000Y-90752000D02*
X132080000Y-92075000D01*
X132080000Y-92075000D02*
X131334000Y-92821000D01*
X131334000Y-92821000D02*
X131334000Y-96774000D01*
X130409480Y-97698520D02*
X131334000Y-96774000D01*
X130409480Y-100424480D02*
X130409480Y-97698520D01*
X130822000Y-100837000D02*
X130409480Y-100424480D01*
%TO.N,/SDC*%
X132400000Y-94516000D02*
X132428000Y-94488000D01*
X132428000Y-92948000D02*
X132880000Y-92496000D01*
X132428000Y-94488000D02*
X132428000Y-92948000D01*
X132350000Y-100837500D02*
X132400000Y-100787500D01*
X132880000Y-92496000D02*
X132880000Y-90830000D01*
X132400000Y-100787500D02*
X132400000Y-94516000D01*
D41*
%TO.N,/INT1*%
X132749522Y-101349500D02*
X132334500Y-101349500D01*
X133345701Y-100753321D02*
X132749522Y-101349500D01*
X133345701Y-100200000D02*
X133345701Y-100753321D01*
%TO.N,Net-(D1-Pad1)*%
X151572000Y-98486000D02*
X151384000Y-98298000D01*
X152278500Y-99446500D02*
X151572000Y-99446500D01*
X156075000Y-100000000D02*
X152832000Y-100000000D01*
X152832000Y-100000000D02*
X152278500Y-99446500D01*
X151572000Y-99446500D02*
X151572000Y-98486000D01*
X147898000Y-98298000D02*
X146296000Y-96696000D01*
X151384000Y-98298000D02*
X147898000Y-98298000D01*
X146296000Y-96696000D02*
X146296000Y-92620000D01*
%TO.N,/LEDC*%
X133680000Y-91400000D02*
X133680000Y-90850000D01*
X135636000Y-93356000D02*
X133680000Y-91400000D01*
X135636000Y-108364000D02*
X135636000Y-93356000D01*
X134400000Y-109600000D02*
X135636000Y-108364000D01*
%TO.N,/LEDD*%
X136400000Y-109600000D02*
X136400000Y-93320000D01*
X136400000Y-93320000D02*
X134480000Y-91400000D01*
X134480000Y-91400000D02*
X134480000Y-90850000D01*
%TO.N,/RXD0*%
X141978000Y-90670000D02*
X140000000Y-88692000D01*
X140000000Y-87200000D02*
X138750000Y-85950000D01*
X140000000Y-88692000D02*
X140000000Y-87200000D01*
X138750000Y-85950000D02*
X137980000Y-85950000D01*
X143346000Y-90670000D02*
X141978000Y-90670000D01*
%TO.N,/TXD0*%
X142113718Y-90170000D02*
X143346000Y-90170000D01*
X137980000Y-85150000D02*
X138750000Y-85150000D01*
X140600000Y-88656282D02*
X142113718Y-90170000D01*
X138750000Y-85150000D02*
X140600000Y-87000000D01*
X140600000Y-87000000D02*
X140600000Y-88656282D01*
D42*
%TO.N,Net-(R4-Pad2)*%
X131334000Y-98806000D02*
X131334000Y-99838000D01*
X131334000Y-99838000D02*
X131850000Y-100354000D01*
X131850000Y-100354000D02*
X131850000Y-100837500D01*
D41*
%TO.N,Net-(R11-Pad1)*%
X148246000Y-91670000D02*
X151730000Y-91670000D01*
X151730000Y-91670000D02*
X151800000Y-91600000D01*
X151800000Y-89200000D02*
X151800000Y-91600000D01*
%TO.N,Net-(R10-Pad2)*%
X148246000Y-91170000D02*
X149622000Y-91170000D01*
X150000000Y-88600000D02*
X151800000Y-86800000D01*
X150000000Y-90792000D02*
X150000000Y-88600000D01*
X149622000Y-91170000D02*
X150000000Y-90792000D01*
D43*
%TO.N,Net-(R8-Pad1)*%
X158600000Y-103800000D02*
X158600000Y-92400000D01*
X158600000Y-92400000D02*
X158800000Y-92200000D01*
D41*
%TO.N,Net-(D1-Pad3)*%
X149672000Y-100142000D02*
X149672000Y-99446500D01*
X149672000Y-99446500D02*
X148246500Y-99446500D01*
X148246500Y-99446500D02*
X145796000Y-96996000D01*
X156075000Y-100650000D02*
X150180000Y-100650000D01*
X145796000Y-96996000D02*
X145796000Y-92620000D01*
X150180000Y-100650000D02*
X149672000Y-100142000D01*
%TO.N,/INT2*%
X133241500Y-101850000D02*
X133691500Y-101400000D01*
X132362500Y-101850000D02*
X133241500Y-101850000D01*
%TO.N,Net-(D2-Pad2)*%
X147933000Y-81788000D02*
X151750000Y-81788000D01*
%TO.N,Net-(D3-Pad2)*%
X147933000Y-84328000D02*
X151750000Y-84328000D01*
%TO.N,Net-(R12-Pad1)*%
X145933000Y-84333000D02*
X145933000Y-84328000D01*
X149098000Y-89902000D02*
X149098000Y-87498000D01*
X148830000Y-90170000D02*
X149098000Y-89902000D01*
X148246000Y-90170000D02*
X148830000Y-90170000D01*
X149098000Y-87498000D02*
X145933000Y-84333000D01*
%TD*%
%TA.AperFunction,Conductor*%
%TO.N,+3V3*%
G36*
X155942209Y-106020002D02*
G01*
X155988702Y-106073658D01*
X156000088Y-106125912D01*
X156004670Y-112673912D01*
X155984716Y-112742047D01*
X155931092Y-112788577D01*
X155878670Y-112800000D01*
X147730670Y-112800000D01*
X147662549Y-112779998D01*
X147616056Y-112726342D01*
X147604670Y-112674088D01*
X147600088Y-106126088D01*
X147620042Y-106057953D01*
X147673666Y-106011423D01*
X147726088Y-106000000D01*
X155874088Y-106000000D01*
X155942209Y-106020002D01*
G37*
%TD.AperFunction*%
%TD*%
M02*
